<?xml version="1.0" encoding="UTF-8" standalone="no"?>
<svg
   xmlns:dc="http://purl.org/dc/elements/1.1/"
   xmlns:cc="http://creativecommons.org/ns#"
   xmlns:rdf="http://www.w3.org/1999/02/22-rdf-syntax-ns#"
   xmlns:svg="http://www.w3.org/2000/svg"
   xmlns="http://www.w3.org/2000/svg"
   viewBox="0 0 95.518224 59.999998"
   height="60"
   width="95.518227"
   xml:space="preserve"
   id="svg2"
   version="1.1"><metadata
     id="metadata8"><rdf:RDF><cc:Work
         rdf:about=""><dc:format>image/svg+xml</dc:format><dc:type
           rdf:resource="http://purl.org/dc/dcmitype/StillImage" /><dc:title></dc:title></cc:Work></rdf:RDF></metadata><defs
     id="defs6" /><g
     transform="matrix(1.3333333,0,0,-1.3333333,-69.056371,83.912741)"
     id="g10"><g
       transform="matrix(2.0662488,0,0,2.0662488,52.198756,18.314746)"
       id="g7644"><path
         id="path7646"
         style="fill:#d6e03f;fill-opacity:1;fill-rule:nonzero;stroke:#d6e03f;stroke-width:0.368;stroke-linecap:butt;stroke-linejoin:miter;stroke-miterlimit:3.864;stroke-dasharray:none;stroke-opacity:1"
         d="m 0,0 h 11.849 c 0,0 0.317,7.27 4.048,12.445 4.179,5.797 8.908,8.954 8.908,8.954 0,0 -8.777,0.557 -16.493,-5.967 C 0.596,8.908 0,0 0,0 Z" /></g><g
       transform="matrix(2.0662488,0,0,2.0662488,82.580879,18.314746)"
       id="g7648"><path
         id="path7650"
         style="fill:#00aeef;fill-opacity:1;fill-rule:nonzero;stroke:#00aeef;stroke-width:0.368;stroke-linecap:butt;stroke-linejoin:miter;stroke-miterlimit:3.864;stroke-dasharray:none;stroke-opacity:1"
         d="m 0,0 h 19.735 c 0,0 -6.996,1.362 -9.55,8.823 -2.554,7.46 0.642,11.678 0.642,11.678 0,0 -5.03,-3.622 -8.312,-9.589 C -0.599,5.249 0.085,0.255 0.085,0.255 Z" /></g></g></svg>
