<?xml version="1.0" encoding="UTF-8" standalone="no"?>
<svg
   xmlns:dc="http://purl.org/dc/elements/1.1/"
   xmlns:cc="http://creativecommons.org/ns#"
   xmlns:rdf="http://www.w3.org/1999/02/22-rdf-syntax-ns#"
   xmlns:svg="http://www.w3.org/2000/svg"
   xmlns="http://www.w3.org/2000/svg"
   id="svg3580"
   version="1.1"
   viewBox="0 0 69.37239 59.999999"
   height="60"
   width="69.372391">
  <metadata
     id="metadata3586">
    <rdf:RDF>
      <cc:Work
         rdf:about="">
        <dc:format>image/svg+xml</dc:format>
        <dc:type
           rdf:resource="http://purl.org/dc/dcmitype/StillImage" />
        <dc:title></dc:title>
      </cc:Work>
    </rdf:RDF>
  </metadata>
  <defs
     id="defs3584" />
  <g
     transform="matrix(1.8577577,0,0,1.8577577,-129.84054,0)"
     id="g3536">
    <path
       d="m 973,296.912 a 30.494,30.494 0 0 1 3.2,4.108 44.971,44.971 0 0 1 3.823,-4.645 24.455,24.455 0 0 0 -4.809,-1.539 z"
       transform="translate(-894.082,-283.013)"
       fill="#007a8f"
       id="path3524" />
    <path
       d="m 990.356,247.964 a 17.271,17.271 0 0 1 0.836,2.7 27.487,27.487 0 0 1 4.994,1.633 58.861,58.861 0 0 1 6.249,-5.583 40.187,40.187 0 0 0 -12.079,1.253"
       transform="translate(-909.795,-239.408)"
       fill="#007a8f"
       id="path3526" />
    <path
       d="m 947.18,349.664 a 11.993,11.993 0 0 0 -2.18,1.529 32.506,32.506 0 0 0 -2.448,12.84 36.723,36.723 0 0 1 5.684,-12.841 c -0.353,-0.532 -0.708,-1.045 -1.058,-1.528"
       transform="translate(-866.495,-332.655)"
       fill="#007a8f"
       id="path3528" />
    <path
       d="m 887.333,214.556 -0.045,0.182 a 3.3,3.3 0 0 0 -0.607,-0.4 0.785,0.785 0 0 0 -1.482,-0.468 3.264,3.264 0 0 0 -0.712,-0.017 1.4662507,1.4662507 0 0 1 2.846,0.707 m -4.917,3.423 -1.131,0.4 -0.551,0.431 0.277,-0.425 c 0.244,-0.451 0.432,-0.772 0.54,-0.939 a 11.06,11.06 0 0 1 2.445,0.092 z M 900.463,214 c -6.216,-2.994 -12.292,-3.971 -18.091,-0.97 l 0.307,1.074 -2.339,2.787 -0.04,0.934 -2.753,3.6 0.125,0.474 0.644,-0.133 0.386,-0.3 -0.762,1.163 2.229,2.4 0.886,-0.148 0.772,-0.584 a 5.548,5.548 0 0 0 1.3,1.131 l -1.816,-0.167 -0.771,0.167 2.657,2.863 a 14.276,14.276 0 0 1 4.781,-4.48 22.436,22.436 0 0 0 -1.844,-2.2 l -0.014,0.013 -0.3,-0.324 -0.039,-0.036 -0.076,-0.081 2.739,-2.573 a 15.194,15.194 0 0 0 -0.8,-2.55 h -0.008 l -0.023,-0.06 -0.2,-0.5 c 2.99,-1.168 8.908,-1.693 13.053,-1.494"
       transform="translate(-807.656,-207.294)"
       fill="#007a8f"
       id="path3530" />
    <path
       d="m 104.098,11.637 c -11.449,2.6 -21.25,8.653 -27.556,20.66 7.389,-8.8 16.428,-13.29 25.826,-13.913 0.481,-1.905 1.089,-4.277 1.73,-6.747"
       fill="#007a8f"
       id="path3532" />
    <path
       d="m 973.374,180.03 c 0.973,-3.735 1.983,-7.547 2.709,-10.187 -15.339,7.439 -27.349,17 -30.949,31.94 a 40.3,40.3 0 0 1 28.24,-21.753"
       transform="translate(-868.85,-169.843)"
       fill="#d91a21"
       id="path3534" />
  </g>
</svg>
