<?xml version="1.0" encoding="UTF-8" standalone="no"?>
<svg
   xmlns:dc="http://purl.org/dc/elements/1.1/"
   xmlns:cc="http://creativecommons.org/ns#"
   xmlns:rdf="http://www.w3.org/1999/02/22-rdf-syntax-ns#"
   xmlns:svg="http://www.w3.org/2000/svg"
   xmlns="http://www.w3.org/2000/svg"
   xml:space="preserve"
   enable-background="new 0 0 660.967 1093.42"
   viewBox="0 0 43.753 59.999998"
   height="60"
   width="43.752998"
   y="0px"
   x="0px"
   id="Layer_1"
   version="1.1"><metadata
   id="metadata900"><rdf:RDF><cc:Work
       rdf:about=""><dc:format>image/svg+xml</dc:format><dc:type
         rdf:resource="http://purl.org/dc/dcmitype/StillImage" /><dc:title></dc:title></cc:Work></rdf:RDF></metadata><defs
   id="defs898" />
<g
   transform="matrix(0.06619937,0,0,0.06619937,-0.00116831,-0.00118766)"
   id="g841">
	<path
   id="path833"
   d="m 409.068,374.832 c 81.971,0 148.396,66.445 148.396,148.416 0,81.971 -66.425,148.396 -148.396,148.396 -81.971,0 -148.416,-66.425 -148.416,-148.396 0,-81.971 66.446,-148.416 148.416,-148.416 z"
   stroke-miterlimit="3.864"
   stroke-width="10"
   stroke="#03723d"
   fill="none" />
	<path
   id="path835"
   d="m 365.512,546.776 c -12.204,-18.667 -70.986,-39.475 -70.986,-39.475 5.762,-7.503 36.273,0.88 67.345,14.686 31.092,13.805 55.821,43.036 55.821,43.036 8.223,18.787 -23.409,-2.121 -38.374,30.111 -14.966,32.232 -9.204,29.931 -20.148,41.456 -11.424,12.024 -4.602,22.989 -18.406,32.212 -13.825,9.204 -8.644,2.881 -28.23,27.05 -19.548,24.169 -23.269,28.25 -33.473,41.855 -13.806,18.427 -1.16,42.296 -12.925,39.955 l 1.2,-35.273 c 20.708,-31.072 27.95,-44.837 31.392,-49.979 4.622,-6.922 1.94,-14.585 -5.742,-14.405 -44.316,1.161 -20.268,-5.022 -35.693,14.986 -15.525,20.127 -23.648,6.782 -24.188,28.75 -0.561,24.189 10.724,33.333 10.724,55.921 h -8.223 c 8.243,-16.526 -22.629,-67.425 -22.049,-76.628 0.561,-8.963 12.985,-8.163 12.646,-11.484 -1.761,-18.127 -8.604,-53.02 -16.106,-46.638 -18.987,16.106 -5.742,-25.91 26.49,-28.21 32.212,-2.301 -4.622,-2.301 32.212,-2.301 36.834,0 9.924,-2.841 36.834,0 32.832,3.441 39.154,-18.407 43.756,-25.33 4.602,-6.922 11.504,-18.407 6.902,-25.309 -4.604,-6.923 9.221,-14.986 9.221,-14.986"
   fill="#03723d" />
	<path
   id="path837"
   d="m 365.512,546.776 c -12.204,-18.667 -70.986,-39.475 -70.986,-39.475 5.762,-7.503 36.273,0.88 67.345,14.686 31.092,13.805 55.821,43.036 55.821,43.036 8.223,18.787 -23.409,-2.121 -38.374,30.111 -14.966,32.232 -9.204,29.931 -20.148,41.456 -11.424,12.024 -4.602,22.989 -18.406,32.212 -13.825,9.204 -8.644,2.881 -28.23,27.05 -19.548,24.169 -23.269,28.25 -33.473,41.855 -13.806,18.427 -1.16,42.296 -12.925,39.955 l 1.2,-35.273 c 20.708,-31.072 27.95,-44.837 31.392,-49.979 4.622,-6.922 1.94,-14.585 -5.742,-14.405 -44.316,1.161 -20.268,-5.022 -35.693,14.986 -15.525,20.127 -23.648,6.782 -24.188,28.75 -0.561,24.189 10.724,33.333 10.724,55.921 h -8.223 c 8.243,-16.526 -22.629,-67.425 -22.049,-76.628 0.561,-8.963 12.985,-8.163 12.646,-11.484 -1.761,-18.127 -8.604,-53.02 -16.106,-46.638 -18.987,16.106 -5.742,-25.91 26.49,-28.21 32.212,-2.301 -4.622,-2.301 32.212,-2.301 36.834,0 9.924,-2.841 36.834,0 32.832,3.441 39.154,-18.407 43.756,-25.33 4.602,-6.922 11.504,-18.407 6.902,-25.309 -4.604,-6.923 9.221,-14.986 9.221,-14.986 z"
   stroke-miterlimit="3.864"
   stroke-width="0.12"
   stroke="#03723d"
   fill="none" />
	
</g>













<path
   style="stroke-width:0.0661994"
   id="path891"
   d="m 11.590408,24.793918 c 0.136436,0.358933 0.153648,1.194634 0.545681,1.194634 0.578781,0 0.443668,-0.818489 0.578781,-1.740382 0.19072,-1.279435 0.552301,-1.491339 1.195958,-2.455599 0.613271,-0.920502 1.917862,-1.988033 3.070194,-2.728473 0.476768,-0.308622 2.029077,-0.682119 2.524447,-0.581429 0.27155,0.05163 1.535097,-0.340398 1.637044,0.272873 0.04899,0.30465 0.09798,0.517878 -0.136437,0.717866 -0.887402,0.749642 0.73905,0.166889 0.887403,-0.274197 0.40792,-1.2278 -0.03581,-0.01589 0.272807,-0.749642 0.186749,-0.460946 0.733754,-0.972204 1.226476,-1.058263 l 0.819813,0.17086 c -0.06759,0.562894 -1.704568,1.193376 -0.545681,1.296647 0,0 1.070179,-0.198664 1.329812,-0.716542 0.274198,-0.545681 0.29803,-1.225151 -0.169536,-1.433084 -2.388076,-1.058263 -5.050284,1.058264 -4.504602,0.238451 2.047679,-0.682119 2.406611,-0.887403 4.504602,-0.887403 1.278111,0 2.113878,-0.20396 2.899267,0.819879 0.630417,0.818555 1.466184,4.401265 1.945732,3.001281 0.373497,-1.875494 -2.219863,-3.921783 -0.684832,-4.092644 2.09137,-0.231764 1.263613,1.500674 1.740381,2.115203 1.125853,0.305973 0.205351,-1.058263 0.443735,-1.329747 1.194633,-0.581429 2.320486,2.319162 2.660817,3.819836 0.09407,0.410568 0.282142,1.455592 0.682118,1.603944 0.921893,0.340398 -0.305907,-1.637044 0.205351,-1.978765 1.671468,0.784065 1.125786,2.899268 1.433084,2.831744 1.198605,-0.267578 -0.103338,-1.978765 -0.204027,-2.627784 1.158952,0.682119 1.295323,3.991955 1.773481,2.762831 -0.06885,-2.524447 -1.33107,-3.239665 -0.852979,-3.138975 0.989416,0.213228 2.049003,4.946946 2.149692,2.35491 -0.222496,-0.750966 -1.075474,-2.474136 -1.058263,-2.593361 0.937714,0.460947 1.666238,1.774805 2.4225,1.807971 0.754938,0.03575 -0.860923,-1.564225 -1.296647,-1.807971 -0.597317,-0.323185 -1.296713,-0.409244 -1.125853,-0.578781 0.874163,-0.874162 3.140366,1.875495 3.206565,1.500608 0.205285,-1.160211 -1.708605,-1.937722 -2.353652,-2.456924 -0.71919,-0.578781 -3.548286,-1.740381 -4.708496,-2.148302 -0.476834,-0.17086 -4.707239,-1.023839 -2.83042,-1.603944 2.660817,0.06891 3.569469,0.776121 6.038309,1.739057 2.181401,0.854303 5.426428,4.128391 4.603901,2.525771 -0.682118,-1.329747 -2.998633,-1.842328 -2.998633,-2.4225 0,0 0.48875,0.0053 1.566873,0.511258 1.078123,0.505962 1.740381,1.331071 2.125728,1.317831 1.521857,-0.05428 -1.68206,-2.37477 -4.615817,-2.749591 3.615809,0.102013 4.964158,1.500607 5.083383,1.43176 1.670144,0.137761 -0.137761,-1.125786 -1.364236,-1.637044 -1.021192,-0.425199 -2.593361,-0.357609 -3.6172,-0.785456 1.262223,0.103338 1.978831,-0.135113 3.513862,0.205285 0.148353,0.03449 2.251639,-0.0331 0.818489,-0.614529 -1.035755,-0.418513 -2.968115,-0.544358 -5.116416,-0.305974 -0.964194,0.10731 -1.672858,0.102014 -2.3894,-0.341721 l 2.286062,-0.23845 c 1.708606,-0.136437 4.195981,0.102013 4.844933,-0.409244 0.715285,-0.716542 -1.85954,-0.512582 -2.729664,-0.512582 -0.870257,0 -3.786737,0.274198 -2.320553,-0.170861 1.263547,-0.511257 4.299252,0.06885 4.128391,-0.749641 0.170861,-0.511258 -1.739057,-0.374821 -2.319162,-0.374821 -0.972204,0 -5.338913,0.954926 -5.868773,0.954926 -0.135046,0 -0.476768,-0.136437 -0.613205,-0.136437 0.95625,-0.562893 4.093968,-1.6555798 4.946947,-2.0807783 0.478158,-0.2383839 1.842328,-0.1536488 1.842328,-0.6821183 0,-0.5125817 -0.921826,-0.2728738 -1.433017,-0.2728738 -0.307298,0 -2.558871,1.193376 -1.433084,-0.1364369 0.324509,-0.5470054 0.716542,-0.9735279 1.125852,-1.4344079 0.341655,-0.3920327 1.672858,-1.0900388 0.647629,-1.193376 -0.476834,-0.1351129 -1.015896,0.6397507 -1.535031,1.1602763 -0.374821,0.3748208 -0.630417,0.5959929 -1.02384,0.9894158 0.445059,-0.6476947 1.125787,-3.6847231 0.137761,-3.0370285 -0.358999,0.9735279 -0.102013,1.7072817 -0.683442,2.5933603 -0.682118,0.1020132 0,-3.206565 -0.511258,-3.8886833 -0.536479,-0.716542 -0.443734,1.0185435 -0.512581,1.2277997 l -0.203961,2.1152022 c -0.08473,0.3231853 -0.03449,1.0569391 -0.44241,0.7853893 -0.598641,-0.5973169 -0.205351,-1.2291237 -0.341721,-2.0476789 0,0 -0.328482,-1.7377334 -0.852979,-1.7059577 -0.523108,0.0331 0.508676,4.1469933 -0.205284,3.7191467 -0.169603,-0.7178659 -1.193376,-2.490023 -1.466184,-2.5933602 -0.0331,0.2900856 -0.307297,0.4953699 -0.170861,0.7496416 0.511258,0.9562499 0.749642,1.6052685 0.749642,2.6966313 0,0.7496416 -0.290086,1.9430176 -0.886078,2.4211756 -0.716542,0.238384 -0.511258,-1.2953229 -1.125853,-1.2953229 -0.392033,0 -0.340397,0.6980059 -0.374821,1.0913619 -0.05164,0.459556 -1.229057,2.693984 -0.886078,0.06885 0,0 0.86218,-2.4211755 1.84107,-3.7879939 1.125787,-1.5681988 2.662208,-4.8873689 1.807905,-4.6727506 -0.547005,0.1351129 -1.602621,2.6608836 -1.978765,2.388076 -0.634455,-0.4622702 0.887402,-3.1403656 0.308621,-3.5138624 -0.684832,-0.99067358 -0.581495,2.7628968 -1.501997,2.5244467 -0.55495,-0.2768458 -0.376145,-4.8794231 -1.125787,-2.3535862 -0.06885,0.23044 0.23845,1.1257865 0.443668,1.6370442 0.340464,1.911242 -0.547005,0.1020132 -0.547005,0.1020132 -0.340397,-0.6132047 -0.647629,-1.8768183 -1.329813,-1.3641703 -0.641075,0.479482 1.671534,2.6264599 1.057005,2.7628306 -0.613271,-0.2224961 -1.739123,-1.7734811 -1.84107,-0.9893496 -0.125845,0.9641938 2.455599,1.9443417 1.329746,2.4900231 -0.956249,-0.3920327 -0.956249,-1.0066276 -1.944341,-1.3311369 -0.08606,0.2052842 -0.221172,0.6662304 0,0.7854555 0.425198,0.2569197 0.768177,0.4264563 0.954992,0.8874025 H 24.280098 V 6.849785 c 0.478158,0.8026673 1.705958,0.7681774 1.705958,1.7072817 0,0.2384501 -0.221172,0.357609 -0.340397,0.5443574 -0.358933,-0.1364369 -0.564217,-0.3403972 -0.95625,-0.3403972 -0.373563,0 -0.492656,0.4436682 -0.492656,0.818489 0,0.3417211 0.01582,0.5456811 0.01582,0.8860781 0,0.478158 -0.443668,0.819813 -0.920502,0.819813 -0.272808,0 -0.462204,-0.08606 -0.716476,-0.136437 v -0.545681 c 0.578781,-0.52847 1.36417,-0.7681773 1.36417,-1.5695207 0,-0.5112577 -0.476834,-1.5694546 -0.476834,-2.0821025 0,-0.715218 2.693984,-4.3310275 1.397337,-4.4687884 -0.953602,1.3483488 -1.568197,4.3336755 -2.113879,4.2304045 0.06752,-1.8423947 2.182726,-5.014536 1.466118,-5.3204433 -0.716476,-1.12578642 -1.501932,3.7178228 -2.38801,2.9668571 0,0 1.091363,-3.75224637 0.307297,-3.75224637 C 21.517268,-0.14219231 21.432532,2.7226515 21.0405,3.9173515 L 20.731878,3.5756304 c -0.20396,-0.9549259 -0.05038,-1.6039445 -0.20396,-2.3880098 0,0 -0.136503,-1.39866026 -0.545681,-1.16027633 -0.589373,0.3456931 -0.170861,2.96156113 -0.170861,3.92310693 0,0.1708606 -0.221172,-0.084735 -0.272874,0.06759 -0.954926,-2.2847388 -1.60262,-3.10455179 -1.60262,-3.10455179 -1.569521,-0.47683405 1.364236,4.24894029 1.364236,5.11780699 0,0.1364369 -0.136503,0.5628932 -0.17086,0.6821183 C 18.174266,5.4339791 17.969048,4.1730135 17.355777,2.6882941 16.980956,1.8008915 16.333261,0.33470793 15.873639,1.1081813 15.674975,1.4446065 17.082903,4.0525306 16.980956,4.1889675 16.314792,3.7969349 16.143865,3.302889 15.684243,2.6883603 15.274998,2.1426789 14.549188,1.3533176 14.320072,1.767858 c -0.341721,0.613271 0.32451,1.4489718 1.022516,2.1496259 0.341655,0.3403972 1.262157,0.9880256 0.682118,1.1588862 -1.364237,-0.4436682 -1.882114,-2.1893455 -3.309902,-2.0463549 -0.682118,0.06759 0.666164,1.2277997 1.263547,1.7734811 1.108641,1.0225154 3.770849,3.4966506 4.639715,4.1615571 0.954926,0.7178659 2.4556,1.7059576 2.524447,2.5588696 0.0331,0.425133 -0.614529,0.545682 -0.954992,0.78539 -0.376145,0.255662 -0.630417,0.426456 -0.954926,0.749641 -0.614529,0.614595 -0.887402,1.433084 -1.774871,1.433084 -0.630417,0 -1.056939,-0.410634 -1.602621,-0.716542 -0.750965,-0.426456 -0.972204,-0.597317 -1.809228,-0.852979 -0.272808,-0.954925 0.647694,-0.749641 1.229123,-0.818555 l 3.61581,0.205284 0.136437,-0.274197 c 0.102013,-0.544358 -0.733754,-0.511258 -1.19331,-0.578781 l -3.822418,-0.274198 0.103337,-0.305974 c 1.466118,-0.581429 3.626402,-0.354961 3.683399,-0.478158 0.239708,-0.511257 -0.06759,-0.6145942 -0.40931,-0.6145942 -0.73243,0 -1.670144,-0.084735 -2.386752,0.03449 -0.614529,0.1033372 -1.331071,0.6145282 -1.331071,0.4768332 0,-0.8344422 1.39866,-1.3642357 1.092687,-2.2503142 -1.058197,-0.6821183 -2.541659,2.5748242 -3.173466,3.3085772 -0.358933,0.427781 -0.613271,1.296647 -1.1947,1.02384 -0.4013663,-0.188073 0.679471,-2.335051 0.98935,-3.035704 0.647695,-1.4661836 1.570845,-3.7867363 0.95625,-3.82116 -0.409245,-0.022508 -0.614529,0.8185552 -0.750966,1.1933761 -0.324443,0.837091 -0.307297,1.8768182 -0.818489,1.6383681 l 0.545682,-2.4555993 c -0.03449,-2.0476789 -0.751032,0.8172312 -0.887403,1.6370441 -0.05038,-0.1536487 -0.05038,-0.8874025 0,-1.1602763 0,0 0.06885,-2.7628306 -0.7165422,-1.7059577 L 9.8512837,7.4641813 9.6459332,7.9423393 C 8.4857893,3.7121335 7.6342006,4.8379862 7.6342006,4.8379862 7.7189358,5.8962493 8.4857893,5.4856808 8.6566499,7.2604196 V 7.804777 L 8.3838423,8.0100613 C 8.0090215,6.4406067 5.9613426,4.6670594 5.7229587,5.3491777 5.5812258,5.7518684 6.0805015,6.0154081 6.405077,6.2696799 c 0.6145287,0.479482 0.8874025,0.8529789 1.3641704,1.672858 -0.1192251,0.0331 -0.2052843,0.1364369 -0.3403972,0.1364369 0,0 -0.7258099,-0.7456697 -1.2291237,-1.1602101 C 4.2567089,5.314754 1.5614016,5.8617594 2.4474801,6.2021565 2.9599956,6.8498512 5.3467477,6.1346332 6.9851158,8.2485114 L 6.7467319,8.419372 C 5.2791581,7.2935855 4.4261793,6.9187647 2.5838508,6.9187647 c -0.2728076,0 -2.59197005,0.5801051 -1.1589523,0.7853893 C 2.9930953,7.8048432 4.3758677,7.583605 6.0646136,8.419372 5.8421175,8.486962 5.8870669,8.545217 5.6553029,8.486962 4.7003108,8.2485114 2.6871218,8.1134647 2.6871218,8.1134647 c -0.8184889,0.0331 -2.25163908,0.716542 -1.3310707,0.817165 1.535031,-0.3059735 2.4569234,-0.2026363 4.026378,-0.0331 l 0.2728738,0.3417212 c -0.6145287,-0.03449 -1.0066276,0 -1.6383681,0 -0.9033566,0 -1.5350972,0.1020132 -2.2516392,0.5443574 -0.5113239,0.5470057 0.5284034,0.2053511 0.8860786,0.2053511 h 1.8437186 c 0.6980061,0 1.3641704,0.3417206 1.7734811,0.8874016 -2.7973205,0.170861 -3.7178228,0.647695 -2.5245129,0.920502 L 6.3029313,11.52399 c 0.9033566,0.376144 1.9430839,1.023839 1.9430839,2.013189 0,0.102013 -0.06759,0.17086 -0.06759,0.272873 -0.1020132,0 -0.2132943,0.151001 -0.2728738,0.06891 -0.2714832,-0.376141 -1.0912961,-1.296643 -1.0912961,-1.296643 -1.5350972,-0.06885 0.2052842,1.039727 0.2052842,1.364236 0,0.205285 -0.1377609,0.49537 -0.2052842,0.682119 -1.1589524,-2.62646 -3.479505,-2.132414 -3.9231732,-2.080779 -0.8515887,0 -2.49002305,0.545682 -2.86484387,1.331071 -0.13504672,0.27155 0.23447816,0.157621 1.49928327,-0.512582 C 2.791783,12.696182 3.6076241,13.264371 3.6076241,13.264371 2.1745401,13.366384 0.58913145,13.962377 0.02617203,15.31066 0.08575146,15.580885 0.98771789,14.919951 1.9361562,14.424581 2.8857861,13.927887 4.1533055,14.151707 4.1533055,14.151707 3.1639559,14.457681 1.116277,14.935773 0.8778269,16.333109 0.74139,17.142396 1.93609,15.635103 2.6870556,15.310593 c 0.6304166,-0.272807 1.2277997,-0.443668 1.7734811,-0.238384 -0.818489,1.2609 -0.7510318,1.944342 -0.1364369,1.637045 0,0 0.9205022,-1.637045 1.7403814,-0.376145 0.333711,0.51523 -0.9562499,1.058263 -1.5695208,1.058263 -0.7337538,0 -0.837091,-0.305974 -1.5695208,-0.305974 -1.4159383,0 -2.42249972,2.728407 -2.01193124,2.660884 1.10857464,-0.186748 0.98809174,-1.536421 2.14830194,-1.569521 0.3682671,-0.01059 1.2967132,-0.226468 1.1589523,0.476834 -0.2039602,1.058263 -1.2277997,1.552309 -1.2277997,2.866168 0,0.459556 0.2052843,1.739058 0.8198792,1.296647 0.1535825,-0.631807 0.1350467,-2.79732 1.3986603,-2.831744 0.578781,-0.01589 1.0569391,0.595993 1.1933098,1.158952 0,0 0.3072974,1.740382 -1.2608994,8.836954 -0.6781463,3.064832 -0.4437344,4.570802 -0.4437344,4.570802 -0.6145287,0.476834 -0.8198791,0.937714 -1.1257864,1.705957 L 4.6644308,36.11957 c 0,0 0.035748,5.50984 0.5125817,7.60783 0.2555957,1.177489 0.3721728,2.156246 0.7496416,3.309903 0.716542,2.182725 0.9893496,3.410525 2.7985783,5.969462 C 11.453706,56.760335 16.71318,60 22.199187,60 c 5.752262,0 10.651479,-2.803941 12.462031,-6.716456 l -17.203693,0.03045 2.319163,-4.639649 H 9.6804893 C 7.7347575,46.355184 7.2063541,44.937988 6.6090372,42.806898 6.3891891,42.005621 6.2686401,36.461292 6.2686401,36.461292 c 0.1204828,0 0.7164757,0.272873 1.0926867,0.921826 0.2728738,-2.900592 -0.5470053,-1.92713 -0.5470053,-3.207889 0,-1.022516 0.1707943,-1.637044 0.5470053,-2.695307 0.8145833,-2.295331 3.4449492,-6.958812 4.0237302,-7.026401 0.119225,-0.01324 0.0848,0.324509 0.205351,0.340397 m 6.789274,-8.663445 c -0.13776,-0.717866 0.544358,-1.296647 0.886079,-1.978766 0.384089,-0.768177 0.954992,-1.058263 1.807971,-1.058263 0.570837,0 0.819879,0.656963 0.819879,1.2278 0,0.691386 -0.487426,0.802667 -1.125853,1.056939 -0.708598,0.282142 -1.381448,0.581429 -2.115202,0.819879 h -0.272807 v -0.06759 z m -0.921892,0.817231 c 0.03449,-0.32451 -0.20396,-0.32451 -0.341721,-0.443735 -0.271484,-0.246327 -0.313851,-0.503313 -0.409245,-0.852978 -0.119225,-0.443735 -0.324509,-0.886079 -0.784131,-0.886079 -0.144381,0 -0.136437,0.196016 -0.136437,0.341721 0,0.484778 0.196016,0.741698 0.23845,1.226476 0.05164,0.572227 0.111281,1.296647 0.682118,1.296647 0.349665,0 0.460947,-0.313918 0.717866,-0.544358 z M 7.5307972,27.728999 c 0.3337772,-0.503314 0.5550155,-0.658286 0.8861448,-1.161534 0.581429,-0.868867 1.0926867,-1.807971 1.740315,-2.625136 0.511324,-0.639751 3.206565,-3.838306 3.206565,-4.537636 0,-0.239708 -0.21058,-0.776121 -0.954992,-1.433084 -1.158886,-1.023839 -0.981405,-0.592021 -1.637044,-0.545681 -0.95625,0.06891 -0.547071,2.182726 -0.716542,2.250315 l 0.136437,1.605269 -0.2384503,0.23845 H 9.6804231 C 9.2963344,21.135873 9.441973,20.361009 8.8950338,20.361009 c -0.3073637,0 -0.3404633,-0.01853 -0.5456814,0.203961 -0.5881152,0.630482 -0.7496416,3.341678 -0.9880918,5.42378 z M 14.593012,16.198062 c -0.282141,-0.852979 -1.229123,-1.074151 -1.229123,-0.954926 0,0.332453 -1.082095,0.135113 -0.818489,0.340397 0.264863,0.205285 1.219855,2.678096 1.705957,3.070129 0.152325,-0.136437 0.818489,-0.945658 0.818489,-1.158887 -6.6e-5,-0.580171 -0.476834,-1.296713 -0.476834,-1.296713"
   fill="#03723d" />
<path
   id="path893"
   d="m 175.08335,374.53406 c 2.061,5.422 2.321,18.046 8.243,18.046 8.743,0 6.702,-12.364 8.743,-26.29 2.881,-19.327 8.343,-22.528 18.066,-37.094 9.264,-13.905 28.971,-30.031 46.378,-41.216 7.202,-4.662 30.651,-10.304 38.134,-8.783 4.102,0.78 23.189,-5.142 24.729,4.122 0.74,4.602 1.48,7.823 -2.061,10.844 -13.405,11.324 11.164,2.521 13.405,-4.142 6.162,-18.547 -0.541,-0.24 4.121,-11.324 2.821,-6.963 11.084,-14.686 18.527,-15.986 l 12.384,2.581 c -1.021,8.503 -25.749,18.027 -8.243,19.587 0,0 16.166,-3.001 20.088,-10.824 4.142,-8.243 4.502,-18.507 -2.561,-21.648 -36.074,-15.986 -76.289,15.986 -68.046,3.602 30.932,-10.304 36.354,-13.405 68.046,-13.405 19.307,0 31.932,-3.081 43.796,12.385 9.523,12.365 22.148,66.485 29.392,45.337 5.642,-28.331 -33.533,-59.242 -10.345,-61.823 31.592,-3.501 19.088,22.669 26.29,31.952 17.007,4.622 3.102,-15.986 6.703,-20.087 18.046,-8.783 35.053,35.033 40.194,57.702 1.421,6.202 4.262,21.988 10.304,24.229 13.926,5.142 -4.621,-24.729 3.102,-29.891 25.249,11.844 17.006,43.796 21.648,42.776 18.106,-4.042 -1.561,-29.891 -3.082,-39.695 17.507,10.304 19.567,60.302 26.79,41.735 -1.04,-38.134 -20.107,-48.938 -12.885,-47.417 14.946,3.221 30.952,74.728 32.473,35.573 -3.361,-11.344 -16.246,-37.374 -15.986,-39.175 14.165,6.963 25.17,26.81 36.594,27.311 11.404,0.54 -13.005,-23.629 -19.587,-27.311 -9.023,-4.882 -19.588,-6.182 -17.007,-8.743 13.205,-13.205 47.438,28.331 48.438,22.668 3.101,-17.526 -25.81,-29.271 -35.554,-37.114 -10.864,-8.743 -53.6,-26.29 -71.126,-32.452 -7.203,-2.581 -71.107,-15.466 -42.756,-24.229 40.194,1.041 53.92,11.724 91.214,26.27 32.952,12.905 81.971,62.363 69.546,38.154 -10.304,-20.087 -45.297,-27.83 -45.297,-36.594 0,0 7.383,0.08 23.669,7.723 16.286,7.643 26.29,20.107 32.111,19.907 22.989,-0.82 -25.409,-35.873 -69.726,-41.535 54.62,1.541 74.988,22.668 76.789,21.628 25.229,2.081 -2.081,-17.006 -20.608,-24.729 -15.426,-6.423 -39.175,-5.402 -54.641,-11.865 19.067,1.561 29.892,-2.041 53.08,3.101 2.241,0.521 34.013,-0.5 12.364,-9.283 -15.646,-6.322 -44.836,-8.223 -77.288,-4.622 -14.565,1.621 -25.27,1.541 -36.094,-5.162 l 34.533,-3.602 c 25.81,-2.061 63.384,1.541 73.187,-6.182 10.805,-10.824 -28.09,-7.743 -41.234,-7.743 -13.146,0 -57.202,4.142 -35.054,-2.581 19.087,-7.723 64.944,1.04 62.363,-11.324 2.581,-7.723 -26.27,-5.662 -35.033,-5.662 -14.686,0 -80.649,14.425 -88.653,14.425 -2.04,0 -7.202,-2.061 -9.263,-2.061 14.445,-8.503 61.843,-25.009 74.728,-31.432 7.223,-3.601 27.83,-2.321 27.83,-10.304 0,-7.743 -13.925,-4.122 -21.647,-4.122 -4.642,0 -38.654,18.027 -21.648,-2.061 4.902,-8.263 10.824,-14.706 17.007,-21.668 5.161,-5.922001 25.27,-16.466001 9.783,-18.027001 -7.203,-2.041 -15.346,9.664 -23.188,17.527001 -5.662,5.662 -9.523,9.003 -15.466,14.946 6.723,-9.784 17.006,-55.661001 2.081,-45.877001 -5.423,14.706 -1.541,25.79 -10.324,39.175001 -10.304,1.541 0,-48.438001 -7.723,-58.742001 -8.104,-10.824 -6.703,15.386 -7.743,18.547 l -3.081,31.952001 c -1.28,4.882 -0.521,15.966 -6.683,11.864 -9.043,-9.023 -3.102,-18.567001 -5.162,-30.932001 0,0 -4.962,-26.25 -12.885,-25.77 -7.902,0.5 7.684,62.644001 -3.101,56.181001 -2.562,-10.844 -18.027,-37.614001 -22.148,-39.175001 -0.5,4.382 -4.642,7.483 -2.581,11.324 7.723,14.445001 11.324,24.249001 11.324,40.735001 0,11.324 -4.382,29.351 -13.385,36.574 -10.824,3.601 -7.723,-19.567 -17.007,-19.567 -5.922,0 -5.142,10.544 -5.662,16.486 -0.78,6.942 -18.566,40.695 -13.385,1.04 0,0 13.024,-36.574 27.811,-57.221 17.006,-23.689001 40.215,-73.828001 27.31,-70.586001 -8.263,2.041 -24.209,40.195 -29.891,36.074 -9.584,-6.983 13.405,-47.438 4.662,-53.08 -10.345,-14.9649996 -8.784,41.736 -22.689,38.134 -8.383,-4.182 -5.682,-73.708 -17.006,-35.553 -1.04,3.481 3.602,17.006 6.702,24.729 5.143,28.871 -8.263,1.541 -8.263,1.541 -5.142,-9.263 -9.783,-28.351 -20.088,-20.607 -9.684,7.243 25.25,39.675 15.967,41.735 -9.264,-3.361 -26.271,-26.79 -27.811,-14.945 -1.901,14.565 37.094,29.371 20.087,37.614 -14.445,-5.922 -14.445,-15.206 -29.371,-20.108 -1.3,3.101 -3.341,10.064 0,11.865 6.423,3.881 11.604,6.442 14.426,13.405 h -13.405 v 7.203001 c 7.223,12.125 25.77,11.604 25.77,25.79 0,3.602 -3.341,5.402 -5.142,8.223 -5.422,-2.061 -8.523,-5.142 -14.445,-5.142 -5.643,0 -7.442,6.702 -7.442,12.364 0,5.162 0.239,8.243 0.239,13.385 0,7.223 -6.702,12.384 -13.905,12.384 -4.121,0 -6.982,-1.3 -10.823,-2.061 v -8.243 c 8.743,-7.983 20.607,-11.604 20.607,-23.709 0,-7.723 -7.203,-23.708 -7.203,-31.452 0,-10.804001 40.695,-65.424001 21.108,-67.505001 -14.405,20.368 -23.689,65.464001 -31.932,63.904001 1.02,-27.831001 32.972,-75.749001 22.147,-80.370001 -10.823,-17.0059996 -22.688,56.161 -36.073,44.817 0,0 16.486,-56.6809996 4.642,-56.6809996 -9.283,-11.324 -10.563,31.9519996 -16.485,49.9989996 l -4.662,-5.162 c -3.081,-14.425 -0.761,-24.229 -3.081,-36.073 0,0 -2.062,-21.1279996 -8.243,-17.52699959 -8.903,5.22199999 -2.581,44.73699959 -2.581,59.26199959 0,2.581 -3.341,-1.28 -4.122,1.021 -14.425,-34.513 -24.209,-46.897 -24.209,-46.897 -23.709,-7.2029996 20.608,64.184 20.608,77.309 0,2.061 -2.062,8.503 -2.581,10.304001 -14.426,-19.327001 -17.526,-38.375001 -26.79,-60.803001 -5.662,-13.405 -15.446,-35.5529996 -22.389,-23.869 -3.001,5.082 18.267,44.477 16.727,46.538 -10.063,-5.922 -12.645,-13.385 -19.588,-22.668 -6.182,-8.243 -17.146,-20.167 -20.607,-13.905 -5.162,9.264 4.902,21.888 15.446,32.472 5.161,5.142 19.066,14.925 10.304,17.506 -20.608,-6.702 -28.431,-33.072 -49.999,-30.912 -10.304,1.021 10.063,18.547 19.087,26.79 16.747,15.446 56.962,52.820001 70.087,62.864001 14.425,10.844 37.094,25.77 38.134,38.654 0.5,6.422 -9.283,8.243 -14.426,11.864 -5.682,3.862 -9.523,6.442 -14.425,11.324 -9.283,9.284 -13.405,21.648 -26.811,21.648 -9.523,0 -15.966,-6.203 -24.209,-10.824 -11.344,-6.442 -14.686,-9.023 -27.33,-12.885 -4.121,-14.425 9.784,-11.324 18.567,-12.365 l 54.62,3.101 2.061,-4.142 c 1.541,-8.223 -11.084,-7.723 -18.026,-8.743 l -57.741,-4.142 1.561,-4.622 c 22.147,-8.783 54.78,-5.362 55.641,-7.223 3.621,-7.723 -1.021,-9.284 -6.183,-9.284 -11.064,0 -25.229,-1.28 -36.054,0.521 -9.283,1.561 -20.107,9.283 -20.107,7.203 0,-12.605 21.128,-20.608 16.506,-33.993 -15.985,-10.304 -38.394,38.895 -47.938,49.979 -5.422,6.462 -9.264,19.587 -18.047,15.466 -6.063,-2.841 10.264,-35.273 14.945,-45.857 9.784,-22.148 23.729,-57.202001 14.445,-57.722001 -6.182,-0.34 -9.283,12.365 -11.344,18.027001 -4.901,12.645 -4.642,28.351 -12.364,24.749 l 8.243,-37.094001 c -0.521,-30.932 -11.345,12.345001 -13.405,24.729001 -0.761,-2.321 -0.761,-13.405 0,-17.527001 0,0 1.04,-41.735 -10.824,-25.77 l 2.081,42.256001 -3.102,7.223 c -17.525,-63.901001 -30.389,-46.894001 -30.389,-46.894001 1.28,15.986 12.864,9.784 15.445,36.593001 v 8.223 l -4.121,3.101 c -5.662,-23.708001 -36.593998,-50.499001 -40.194998,-40.195001 -2.141,6.083 5.401,10.064 10.304,13.905 9.282998,7.243001 13.404998,12.885001 20.606998,25.270001 -1.801,0.5 -3.101,2.061 -5.142,2.061 0,0 -10.964,-11.264 -18.566998,-17.526 -29.351,-24.230001 -70.066,-15.967001 -56.681,-10.825001 7.742,9.784001 43.796,-1.02 68.544998,30.912001 l -3.601,2.581 c -22.168998,-17.006 -35.053998,-22.668 -62.883998,-22.668 -4.121,0 -39.15400031,8.763 -17.507,11.864 23.689,1.521 44.577,-1.821 70.087,10.804 -3.361,1.021 -2.682,1.901 -6.183,1.021 -14.426,-3.602 -44.837,-5.642 -44.837,-5.642 -12.364,0.5 -34.0130003,10.824 -20.107,12.344 23.188,-4.622 37.114,-3.061 60.822,-0.5 l 4.122,5.162 c -9.283,-0.521 -15.206,0 -24.749,0 -13.646,0 -23.189,1.541 -34.013,8.223 -7.724,8.263 7.982,3.102 13.385,3.102 h 27.851 c 10.544,0 20.607,5.162 26.79,13.405 -42.256,2.581 -56.161,9.784 -38.135,13.905 l 38.654,-4.122 c 13.645998,5.682 29.351998,15.466 29.351998,30.411 0,1.541 -1.021,2.581 -1.021,4.122 -1.541,0 -3.222,2.281 -4.122,1.041 -4.101,-5.682 -16.485,-19.587 -16.485,-19.587 -23.188998,-1.04 3.101,15.706 3.101,20.608 0,3.101 -2.081,7.483 -3.101,10.304 -17.506998,-39.675 -52.560998,-32.212 -59.262998,-31.432 -12.864,0 -37.6140003,8.243 -43.27600031,20.107 -2.03999999,4.102 3.54200001,2.381 22.64800031,-7.743 19.128,-10.124 31.452,-1.541 31.452,-1.541 -21.648,1.541 -45.5970003,10.544 -54.10100031,30.911 0.90000001,4.082 14.52500031,-5.902 28.85200031,-13.385 14.345,-7.503 33.492,-4.122 33.492,-4.122 -14.945,4.622 -45.877,11.844 -49.479,32.952 -2.061,12.225 15.986,-10.544 27.33,-15.446 9.523,-4.121 18.547,-6.702 26.79,-3.601 -12.364,19.047 -11.345,29.371 -2.061,24.729 0,0 13.905,-24.729 26.29,-5.682 5.041,7.783 -14.445,15.986 -23.709,15.986 -11.084,0 -12.645,-4.622 -23.709,-4.622 -21.389,0 -36.5940003,41.215 -30.392,40.195 16.746,-2.821 14.926,-23.209 32.452,-23.709 5.563,-0.16 19.588,-3.421 17.507,7.203 -3.081,15.986 -18.547,23.449 -18.547,43.296 0,6.942 3.101,26.27 12.385,19.587 2.32,-9.544 2.04,-42.256 21.128,-42.776 8.743,-0.24 15.966,9.003 18.026,17.507 0,0 4.641998,26.29 -19.047,133.49 -10.244,46.297 -6.703,69.046 -6.703,69.046 -9.283,7.203 -12.385,14.165 -17.006,25.77 l 16.466,-2.081 c 0,0 0.54,83.231 7.743,114.923 3.861,17.787 5.622,32.572 11.324,49.999 10.823998,32.972 14.944998,51.519 42.274998,90.174 41.216,56.701 120.665,105.639 203.536,105.639 86.893,0 160.9,-42.356 188.25,-101.458 l -259.877,0.46 35.033,-70.086 h -152.512 c -29.392,-35.033 -37.374,-56.441 -46.396998,-88.633 -3.321,-12.104 -5.142,-95.856 -5.142,-95.856 1.82,0 10.822998,4.122 16.505998,13.925 4.122,-43.816 -8.263,-29.111 -8.263,-48.458 0,-15.446 2.58,-24.729 8.263,-40.715 12.305,-34.673 52.039,-105.119 60.782,-106.14 1.801,-0.2 1.281,4.902 3.102,5.142 z m 102.558,-130.869 c -2.081,-10.844 8.223,-19.587 13.385,-29.891 5.802,-11.604 14.426,-15.986 27.311,-15.986 8.623,0 12.385,9.924 12.385,18.547 0,10.444 -7.363,12.125 -17.007,15.966 -10.704,4.262 -20.868,8.783 -31.952,12.385 h -4.121 v -1.021 z m -13.926,12.345 c 0.521,-4.902 -3.081,-4.902 -5.162,-6.703 -4.101,-3.721 -4.741,-7.603 -6.182,-12.885 -1.801,-6.703 -4.902,-13.385 -11.845,-13.385 -2.181,0 -2.061,2.961 -2.061,5.162 0,7.323 2.961,11.204 3.602,18.527 0.78,8.644 1.681,19.587 10.304,19.587 5.282,0 6.963,-4.742 10.844,-8.223 z m -149.956,162.861 c 5.042,-7.603 8.384,-9.944 13.386,-17.546 8.783,-13.125 16.506,-27.311 26.289,-39.655 7.724,-9.664 48.438,-57.981 48.438,-68.545 0,-3.621 -3.181,-11.724 -14.426,-21.648 -17.506,-15.466 -14.825,-8.943 -24.729,-8.243 -14.445,1.041 -8.264,32.972 -10.824,33.993 l 2.061,24.249 -3.602,3.602 h -4.121 c -5.802,-5.802 -3.602,-17.507 -11.864,-17.507 -4.643,0 -5.143,-0.28 -8.243,3.081 -8.884,9.524 -11.324,50.479 -14.926,81.931 z m 106.681,-174.185 c -4.262,-12.885 -18.567,-16.226 -18.567,-14.425 0,5.022 -16.346,2.041 -12.364,5.142 4.001,3.101 18.427,40.455 25.77,46.377 2.301,-2.061 12.364,-14.285 12.364,-17.506 -0.001,-8.764 -7.203,-19.588 -7.203,-19.588 z"
   stroke-miterlimit="3.864"
   stroke-width="0.038"
   stroke="#03723d"
   fill="none" />
</svg>
