<?xml version="1.0" encoding="UTF-8" standalone="no"?>
<svg
   xmlns:dc="http://purl.org/dc/elements/1.1/"
   xmlns:cc="http://creativecommons.org/ns#"
   xmlns:rdf="http://www.w3.org/1999/02/22-rdf-syntax-ns#"
   xmlns:svg="http://www.w3.org/2000/svg"
   xmlns="http://www.w3.org/2000/svg"
   viewBox="0 0 59.975376 60"
   height="60"
   width="59.975376"
   xml:space="preserve"
   id="svg2"
   version="1.1"><metadata
     id="metadata8"><rdf:RDF><cc:Work
         rdf:about=""><dc:format>image/svg+xml</dc:format><dc:type
           rdf:resource="http://purl.org/dc/dcmitype/StillImage" /><dc:title></dc:title></cc:Work></rdf:RDF></metadata><defs
     id="defs6"><clipPath
       id="clipPath798"
       clipPathUnits="userSpaceOnUse"><path
         id="path796"
         d="M 0,0 H 419.528 V 595.276 H 0 Z" /></clipPath></defs><g
     transform="matrix(1.3333333,0,0,-1.3333333,-239.40197,77.795866)"
     id="g10"><g
       transform="matrix(1.2629771,0,0,1.2629771,-7.2755447,-7.4545851)"
       id="g792"><g
         clip-path="url(#clipPath798)"
         id="g794"><g
           transform="translate(28.8174,225.5937)"
           id="g800" /><g
           transform="matrix(2.0888844,0,0,2.0888844,159.19752,22.471564)"
           id="g840"><path
             id="path842"
             style="fill:#2f83cc;fill-opacity:1;fill-rule:nonzero;stroke:none"
             d="M 0,0 11.654,5.306 C 11.47,0.758 7.725,-2.873 3.132,-2.873 c -4.709,0 -8.528,3.819 -8.528,8.529 0,4.71 3.818,8.528 8.528,8.528 1.365,0 2.654,-0.32 3.798,-0.89 L 0.845,10.491 C 0.696,10.409 0.554,10.291 0.428,10.165 -0.086,9.652 -0.224,8.907 0.006,8.265 l 11.435,5.264 c 0.064,-0.219 0.094,-0.459 0.094,-0.699 0,-0.978 -0.576,-1.819 -1.406,-2.21 L 0.841,6.345 C 0.691,6.264 0.548,6.161 0.422,6.035 -0.091,5.521 -0.23,4.777 0,4.135 L 11.447,9.398 C 11.51,9.179 11.535,8.939 11.535,8.7 11.535,7.722 10.959,6.881 10.129,6.49 L 0.836,2.211 C 0.688,2.13 0.541,2.021 0.416,1.896 -0.099,1.382 -0.231,0.641 0,0" /></g></g></g></g></svg>
