<?xml version="1.0" encoding="UTF-8" standalone="no"?>
<svg
   xmlns:dc="http://purl.org/dc/elements/1.1/"
   xmlns:cc="http://creativecommons.org/ns#"
   xmlns:rdf="http://www.w3.org/1999/02/22-rdf-syntax-ns#"
   xmlns:svg="http://www.w3.org/2000/svg"
   xmlns="http://www.w3.org/2000/svg"
   xml:space="preserve"
   enable-background="new 0 0 1596.956 661.189"
   viewBox="0 0 95.331021 59.999998"
   height="60"
   width="95.331024"
   y="0px"
   x="0px"
   id="Layer_1"
   version="1.1"><metadata
   id="metadata4874"><rdf:RDF><cc:Work
       rdf:about=""><dc:format>image/svg+xml</dc:format><dc:type
         rdf:resource="http://purl.org/dc/dcmitype/StillImage" /><dc:title></dc:title></cc:Work></rdf:RDF></metadata><defs
   id="defs4872" />
<g
   transform="translate(-326.85)"
   id="g4867">
	
	
	<linearGradient
   gradientTransform="matrix(0.09263448,0,0,0.09263448,296.57242,0)"
   y2="302.04691"
   x2="1337.1074"
   y1="464.0054"
   x1="312.0928"
   gradientUnits="userSpaceOnUse"
   id="SVGID_1_">
		<stop
   id="stop4826"
   style="stop-color:#7CB021"
   offset="0" />
		<stop
   id="stop4828"
   style="stop-color:#487E24"
   offset="0.3843" />
		<stop
   id="stop4830"
   style="stop-color:#FFF100"
   offset="0.702" />
		<stop
   id="stop4832"
   style="stop-color:#FFFFFF"
   offset="1" />
	</linearGradient>
	<path
   style="fill:url(#SVGID_1_);stroke-width:0.0926345"
   id="path4835"
   d="m 419.3874,20.260179 0.215,0.195181 -2.53744,-1.151724 -4.45044,-1.288175 -7.22178,-1.151632 c -4.37226,-0.46836 -9.13488,-0.572666 -14.28758,-0.312271 -4.3201,0.20815 -8.49708,0.839268 -12.53094,1.893356 -3.89055,0.96275 -7.95054,2.309656 -12.17949,4.04016 l -5.50425,2.303357 0.11709,-1.366359 c 0.20834,-1.093179 0.52052,-2.290202 0.937,-3.591531 l 0.62445,-1.210177 c 5.94658,-1.678537 12.02349,-2.836653 18.23037,-3.474256 l 9.11514,-0.507359 c 2.4072,-0.182212 5.26979,-0.149698 8.58796,0.09754 l 7.96369,0.936812 c 2.51151,0.442423 4.80792,0.982389 6.89025,1.619992 0.91069,0.273364 2.28344,0.832784 4.11834,1.678537 z m -62.32244,6.460607 -3.70853,1.912716 c -2.36829,1.223146 -4.45044,2.492053 -6.24597,3.806073 -1.97803,1.522633 -3.57208,2.967083 -4.78207,4.333349 -1.36627,1.379234 -2.53087,2.869075 -3.4939,4.469428 -0.94978,1.691876 -1.65899,3.207561 -2.12753,4.547982 -0.53358,1.379235 -0.85224,2.797747 -0.95636,4.255165 -0.13015,1.626291 -0.0584,2.927805 0.21463,3.90371 0.20815,1.171177 0.67012,2.302985 1.38591,3.395979 0.6376,1.067057 1.41184,1.951809 2.32262,2.654812 l -5.07479,-0.839546 -1.503,-0.526905 c -1.47038,-0.820001 -2.59589,-1.704752 -3.37671,-2.654812 -1.015,-1.144777 -1.72402,-2.309377 -2.12744,-3.493431 -0.49458,-1.210362 -0.74182,-2.596081 -0.74182,-4.157621 0,-1.561539 0.20833,-3.077595 0.62463,-4.547982 0.65067,-1.873718 1.39888,-3.500009 2.24454,-4.879614 0.96303,-1.587384 2.12763,-3.181253 3.49389,-4.78207 1.37933,-1.43111 3.0775,-2.947258 5.09425,-4.547611 1.8349,-1.418327 4.02089,-2.791262 6.55843,-4.118529 2.97977,-1.561447 6.34352,-3.051287 10.09095,-4.469614 0.20852,2.121052 0.91106,4.033861 2.10827,5.738521 z"
   fill="url(#SVGID_1_)"
   clip-rule="evenodd"
   fill-rule="evenodd" />
	<linearGradient
   gradientTransform="matrix(0.09263448,0,0,0.09263448,296.57242,0)"
   y2="472.15909"
   x2="908.57202"
   y1="104.98"
   x1="1165.4746"
   gradientUnits="userSpaceOnUse"
   id="SVGID_2_">
		<stop
   id="stop4837"
   style="stop-color:#FFD100"
   offset="0" />
		<stop
   id="stop4839"
   style="stop-color:#E20A16"
   offset="0.1176" />
		<stop
   id="stop4841"
   style="stop-color:#FF860C"
   offset="0.3569" />
		<stop
   id="stop4843"
   style="stop-color:#FFF100"
   offset="0.5373" />
		<stop
   id="stop4845"
   style="stop-color:#FFFFFF"
   offset="0.8275" />
		<stop
   id="stop4847"
   style="stop-color:#7CB021"
   offset="1" />
	</linearGradient>
	<path
   style="fill:url(#SVGID_2_);stroke-width:0.0926345"
   id="path4850"
   d="m 419.3874,20.260179 c 1.01518,0.624635 1.69187,1.216662 2.02999,1.776081 0.84594,1.067057 0.98887,2.309841 0.42964,3.728167 -0.68957,1.327175 -1.96524,2.66741 -3.8259,4.020707 -2.38117,1.496232 -4.9967,2.764954 -7.84632,3.806073 -1.3533,0.546636 -3.15541,1.118932 -5.40643,1.717721 l -13.76076,2.127258 c -1.70466,0.143306 -4.15095,0.215005 -7.33897,0.215005 l -6.9876,-0.663726 c -1.69169,-0.247427 -3.77365,-0.702633 -6.24597,-1.366359 l -2.24454,-0.956451 h -0.19518 c -2.12105,-1.171177 -3.7151,-2.342262 -4.78207,-3.513347 l -1.17108,-1.5809 c 4.07277,1.873717 7.99584,3.214045 11.76967,4.020707 3.78644,0.832969 7.31942,1.190538 10.5985,1.07354 3.0448,0 6.21985,-0.390361 9.52514,-1.171177 2.83665,-0.637789 5.77094,-1.522633 8.80278,-2.654441 2.58922,-1.014996 4.89249,-2.147082 6.9096,-3.396351 1.93856,-1.327267 3.27889,-2.524382 4.02071,-3.591531 0.76775,-1.353112 1.01481,-2.517805 0.74154,-3.493709 -0.24706,-1.002028 -0.84557,-1.782751 -1.79563,-2.342263 l 4.45044,1.288175 2.53744,1.151724 z"
   fill="url(#SVGID_2_)"
   clip-rule="evenodd"
   fill-rule="evenodd" />
	<linearGradient
   gradientTransform="matrix(0.09263448,0,0,0.09263448,296.57242,0)"
   y2="367.52789"
   x2="751.51721"
   y1="-61.4375"
   x1="951.82709"
   gradientUnits="userSpaceOnUse"
   id="SVGID_3_">
		<stop
   id="stop4852"
   style="stop-color:#0885C2"
   offset="0" />
		<stop
   id="stop4854"
   style="stop-color:#00377C"
   offset="0.1294" />
		<stop
   id="stop4856"
   style="stop-color:#0083D7"
   offset="0.3216" />
		<stop
   id="stop4858"
   style="stop-color:#5CC8F1"
   offset="0.4706" />
		<stop
   id="stop4860"
   style="stop-color:#7CB021"
   offset="0.8784" />
		<stop
   id="stop4862"
   style="stop-color:#FFFFFF"
   offset="1" />
	</linearGradient>
	<path
   style="fill:url(#SVGID_3_);stroke-width:0.0926345"
   id="path4865"
   d="m 360.89048,24.788523 0.21464,2.029807 c 0.10421,1.002027 0.41639,1.919479 0.937,2.752263 l 1.17108,1.5809 c 1.06697,1.171178 2.66102,2.342263 4.78207,3.513348 l -2.24463,-0.956544 -2.75217,-1.5809 c -2.15995,-1.353297 -3.96216,-2.914836 -5.4067,-4.684433 l -0.52681,-0.722178 c -1.1973,-1.70466 -1.89984,-3.617377 -2.10818,-5.738336 v -0.312456 c -0.22121,-2.823684 0.72218,-5.718882 2.83017,-8.685779 2.2513,-3.174954 5.54334,-5.8294876 9.8765,-7.9635081 3.7215,-1.6785368 8.03493,-2.8431374 12.94067,-3.49389462 L 386.94773,0 c 2.61553,0 4.52834,0.03242207 5.73852,0.09763674 l 4.66489,0.52681228 c 1.11893,0.18221202 2.14708,0.47502958 3.08371,0.87836008 L 392.7837,1.1905383 c -2.78468,0 -5.57585,0.3839699 -8.37351,1.1517245 -6.5713,1.6655679 -12.57652,5.2633058 -18.01555,10.7936772 -0.80685,0.819815 -1.69169,1.886686 -2.65463,3.200984 l -1.17108,2.283718 -0.62445,1.210177 c -0.41649,1.301329 -0.72866,2.498351 -0.937,3.591531 z"
   fill="url(#SVGID_3_)"
   clip-rule="evenodd"
   fill-rule="evenodd" />
</g>
</svg>
