<?xml version="1.0" encoding="UTF-8" standalone="no"?>
<svg
   xmlns:dc="http://purl.org/dc/elements/1.1/"
   xmlns:cc="http://creativecommons.org/ns#"
   xmlns:rdf="http://www.w3.org/1999/02/22-rdf-syntax-ns#"
   xmlns:svg="http://www.w3.org/2000/svg"
   xmlns="http://www.w3.org/2000/svg"
   xmlns:xlink="http://www.w3.org/1999/xlink"
   id="svg25195"
   version="1.1"
   viewBox="0 0 15.875 8.3399134"
   height="8.3399134mm"
   width="15.875mm">
  <defs
     id="defs25189">
    <linearGradient
       id="linearGradient25866">
      <stop
         id="stop25862"
         offset="0"
         style="stop-color:#eb1c24;stop-opacity:1" />
      <stop
         id="stop25864"
         offset="1"
         style="stop-color:#6d1914;stop-opacity:1" />
    </linearGradient>
    <linearGradient
       gradientTransform="translate(-3.5990078,-9.9064781)"
       gradientUnits="userSpaceOnUse"
       y2="33.309151"
       x2="169.9866"
       y1="33.309151"
       x1="32.501942"
       id="linearGradient25868"
       xlink:href="#linearGradient25866" />
  </defs>
  <metadata
     id="metadata25192">
    <rdf:RDF>
      <cc:Work
         rdf:about="">
        <dc:format>image/svg+xml</dc:format>
        <dc:type
           rdf:resource="http://purl.org/dc/dcmitype/StillImage" />
        <dc:title></dc:title>
      </cc:Work>
    </rdf:RDF>
  </metadata>
  <g
     transform="translate(-11.397409,-22.564022)"
     style="display:inline"
     id="layer2">
    <g
       transform="matrix(0.11546743,0,0,0.11546743,8.0600617,24.031732)"
       id="g25787">
      <path
         id="path25791"
         d="m 28.902932,59.219722 c 0,-0.18269 0.912812,-1.03379 2.028472,-1.89134 C 44.339655,47.02214 65.147961,39.77676 88.875153,37.15257 101.28599,35.77995 117.7693,35.62571 127.49975,36.79115 c 10.97762,1.31483 21.9158,4.33186 29.94245,8.2589 4.33364,2.12024 8.70223,4.83328 8.9423,5.55347 0.0758,0.2275 -1.2505,-0.0172 -3.14678,-0.58057 -9.87317,-2.93323 -22.77948,-5.26385 -37.49729,-6.77125 -5.86234,-0.60043 -29.343815,-0.593 -35.277777,0.0112 -19.749778,2.01078 -36.313672,5.94614 -52.563888,12.48848 -2.910416,1.171742 -6.040451,2.506202 -6.955633,2.965482 -1.858488,0.93269 -2.0402,0.97748 -2.0402,0.50291 z M 39.32988,47.12616 c -0.701507,-1.00154 -0.71414,-3.95134 -0.02528,-5.90377 0.288137,-0.81666 1.96956,-3.4594 3.736494,-5.87274 C 56.235707,17.328 70.656741,1.8027799 80.139691,-4.5895001 c 3.906128,-2.63305 5.427983,-3.32217 6.735575,-3.04996 4.745736,0.98794 9.381868,7.21554999 13.975224,18.7725801 0.63621,1.60073 1.28357,2.91042 1.43858,2.91042 0.36047,0 -0.46482,-3.59887 -1.65842,-7.2319401 -1.886428,-5.74189 -4.135608,-9.89458 -7.795236,-14.39249 -1.152175,-1.41609 -1.820763,-2.5265099 -1.632772,-2.7117799 0.528835,-0.52117 7.08484,-1.70567 11.911388,-2.15207 5.74658,-0.5315 16.67664,-0.22842 20.33334,0.56381 5.03086,1.08994 9.09922,3.5523199 13.2244,8.0040599 2.34,2.52524 6.88394,8.56881 6.88394,9.15584 0,0.67915 -0.62234,0.19058 -2.07306,-1.62747 -3.01883,-3.78320001 -8.69586,-8.96163 -11.03965,-10.07007 -4.18384,-1.97864 -6.50675,-2.29299 -16.8734,-2.28345 -5.14174,0.005 -9.78518,0.12683 -10.31875,0.27131 -1.37471,0.37224 -1.26105,1.49513 0.40504,4.00141 0.75635,1.13777 2.43681,3.97366999 3.73435,6.30201 1.29753,2.32833 2.75881,4.76012 3.24727,5.40398 3.17169,4.1806701 8.76865,5.4390201 24.45153,5.4973501 5.14174,0.0191 10.03092,-0.0874 10.86485,-0.23668 l 1.51625,-0.27146 1.21778,2.67225 c 0.66978,1.46974 0.97236,2.391333 1.08887,2.556899 0.15084,0.214355 0.35333,0.682936 0.17178,0.93654 -0.18156,0.253603 -1.19789,0.710244 -1.19789,0.710244 -0.63178,0.485102 -0.96164,1.515187 -0.96164,1.922407 0,0.96124 1.13293,2.078725 2.37227,2.33995 0.83982,0.177015 1.49988,-0.0039 1.86896,0.39385 0.36908,0.397716 0.44717,1.37403 0.76764,2.44734 1.41598,4.74237 2.87586,13.55094 2.24585,13.55094 -0.1406,0 -1.63199,-0.48636 -3.31421,-1.0808 -6.86091,-2.42443 -17.05682,-4.65431 -26.51829,-5.79965 -6.66255,-0.80652 -19.40396,-1.07277 -26.423098,-0.55215 -3.161387,0.23448 -5.840219,0.33409 -5.952956,0.22135 -0.112741,-0.11274 0.140755,-0.82013 0.563319,-1.57198 0.953961,-1.69734 0.966834,-2.70486 0.0537,-4.20259 -1.737734,-2.85022 -6.293785,-2.88208 -9.112144,-0.0637 -1.951083,1.95109 -2.079117,4.81144 -0.28207,6.30177 0.321094,0.26629 0.583812,0.60175 0.583812,0.74547 0,0.14372 -1.389063,0.53305 -3.086806,0.86518 -7.257476,1.41978 -15.424345,3.70533 -22.133134,6.1941 -2.094128,0.77685 -4.003362,1.41247 -4.242741,1.41247 -0.23938,0 -0.529639,-0.47202 -0.645021,-1.04893 -0.282404,-1.41202 -1.680812,-1.79184 -2.995925,-0.81371 -1.108949,0.82478 -1.36779,1.91991 -0.603674,2.55407 0.824638,0.68438 0.668731,1.05726 -0.677201,1.61963 -1.610947,0.67309 -1.920588,0.64512 -1.711459,-0.15458 0.36122,-1.38131 -0.751197,-1.09564 -4.52192,1.16124 -2.138079,1.2797 -3.945347,2.32672 -4.016152,2.32672 -0.07081,0 -0.375863,-0.35282 -0.677907,-0.78405 z m 5.701278,-6.15949 1.86344,-1.19203 v -2.45861 c 0,-1.74247 -0.129508,-2.4586 -0.444626,-2.4586 -0.654035,0 -5.297765,6.99702 -5.058149,7.62146 0.229608,0.59834 0.544589,0.46746 3.639335,-1.51222 z m 7.684273,-4.63856 2.822223,-1.70209 -0.09081,-2.44193 c -0.193037,-5.19067 -0.490125,-7.55722 -0.948704,-7.55722 -0.247583,0 -1.662789,1.51633 -3.144901,3.36962 l -2.694748,3.36961 v 2.77514 c 0,2.98115 0.194657,3.89183 0.831493,3.89007 0.221776,-6.1e-4 1.673229,-0.76705 3.225451,-1.7032 z m 10.702072,-6.07692 c 2.457053,-1.36927 4.695912,-2.71473 4.975234,-2.98991 0.43803,-0.43153 0.44723,-1.53125 0.06691,-7.99745 -0.242527,-4.12342 -0.498789,-7.55495 -0.569475,-7.62564 -0.425743,-0.42574 -1.923069,0.78627 -5.919239,4.79133 l -4.500251,4.51026 0.36903,5.45952 c 0.371046,5.48935 0.490961,6.34146 0.892412,6.34146 0.119904,0 2.228323,-1.12031 4.685379,-2.48957 z m 15.081694,-7.92676 c 3.02697,-1.46037 7.240319,-3.3838 9.362993,-4.27428 3.044613,-1.27724 3.968574,-1.83015 4.376466,-2.61892 1.046752,-2.0242 0.42823,-4.58484 -1.95526,-8.0946901 -5.097632,-7.50660001 -8.264797,-7.81723001 -16.136716,-1.58269 -3.368848,2.66813 -3.092916,1.45888 -2.535548,11.1119101 0.414898,7.18561 0.533961,8.11389 1.040694,8.11389 0.189082,0 2.820402,-1.19485 5.847371,-2.65522 z m 45.036373,0.55477 c 1.19493,-1.33724 1.21497,-1.92012 0.10423,-3.03086 -1.30511,-1.3051 -3.76694,-1.22622 -5.15845,0.16529 -1.10755,1.10754 -1.29466,2.03149 -0.59023,2.91446 1.36467,1.71053 4.09339,1.6869 5.64445,-0.0489 z"
         style="fill:url(#linearGradient25868);fill-opacity:1;stroke-width:0.352778" />
    </g>
  </g>
</svg>
