<?xml version="1.0" encoding="UTF-8" standalone="no"?>
<svg
   xmlns:dc="http://purl.org/dc/elements/1.1/"
   xmlns:cc="http://creativecommons.org/ns#"
   xmlns:rdf="http://www.w3.org/1999/02/22-rdf-syntax-ns#"
   xmlns:svg="http://www.w3.org/2000/svg"
   xmlns="http://www.w3.org/2000/svg"
   version="1.1"
   id="svg2"
   xml:space="preserve"
   width="59.998642"
   height="60"
   viewBox="0 0 59.998643 60.000001"><metadata
     id="metadata8"><rdf:RDF><cc:Work
         rdf:about=""><dc:format>image/svg+xml</dc:format><dc:type
           rdf:resource="http://purl.org/dc/dcmitype/StillImage" /><dc:title></dc:title></cc:Work></rdf:RDF></metadata><defs
     id="defs6"><clipPath
       clipPathUnits="userSpaceOnUse"
       id="clipPath3894"><path
         d="m 898.08,170.817 h 78.119 V 92.6975 H 898.08 Z"
         id="path3892" /></clipPath><linearGradient
       x1="0"
       y1="0"
       x2="1"
       y2="0"
       gradientUnits="userSpaceOnUse"
       gradientTransform="matrix(78.118935,0,0,78.118935,898.07953,131.75743)"
       spreadMethod="pad"
       id="linearGradient3910"><stop
         style="stop-opacity:1;stop-color:#231f20"
         offset="0"
         id="stop3900" /><stop
         style="stop-opacity:1;stop-color:#231f20"
         offset="0.0137214"
         id="stop3902" /><stop
         style="stop-opacity:1;stop-color:#ffffff"
         offset="0.309723"
         id="stop3904" /><stop
         style="stop-opacity:1;stop-color:#ffffff"
         offset="0.714409"
         id="stop3906" /><stop
         style="stop-opacity:1;stop-color:#231f20"
         offset="1"
         id="stop3908" /></linearGradient></defs><g
     id="g10"
     transform="matrix(1.3333333,0,0,-1.3333333,-753.48968,323.08825)"
     style="display:none"><g
       id="g6381"
       transform="matrix(0.45846058,0,0,0.45846058,306.03328,131.22377)"><path
         d="m 601.26553,174.46731 c 2.68253,4.68909 4.73181,9.64077 8.11669,13.9592 -4.32094,-3.38363 -9.27137,-5.43416 -13.9592,-8.11669 -10.02273,-5.73194 -16.73722,-10.66101 -20.94509,-16.44321 2.91749,-3.93773 6.4054,-7.4269 10.34439,-10.34439 5.7822,4.20787 10.71127,10.92361 16.44321,20.94509"
         style="fill:#98ba06;fill-opacity:1;fill-rule:nonzero;stroke:none;stroke-width:1.25645"
         id="path3842" /><path
         d="m 615.95522,186.6662 c 0.77021,-5.43291 0.0716,-10.74645 0.0503,-16.1492 -0.0465,-11.54179 0.86318,-19.82057 3.76433,-26.35538 4.97305,0.55912 9.71868,1.85452 14.1326,3.7769 -0.75262,7.11404 -4.10107,14.74072 -9.91594,24.71822 -2.72022,4.66647 -5.98323,8.91831 -8.03125,14.00946"
         style="fill:#98ba06;fill-opacity:1;fill-rule:nonzero;stroke:none;stroke-width:1.25645"
         id="path3846" /><path
         d="m 620.76631,191.47731 c 5.09115,-2.04802 9.34299,-5.31103 14.00946,-8.03125 9.9775,-5.81362 17.60418,-9.16332 24.71822,-9.91594 1.92238,4.41392 3.21778,9.16081 3.77564,14.13134 -6.53355,2.90241 -14.81233,3.81334 -26.35537,3.76685 -5.4015,-0.0214 -10.71504,-0.72121 -16.14795,0.049"
         style="fill:#98ba06;fill-opacity:1;fill-rule:nonzero;stroke:none;stroke-width:1.25645"
         id="path3850" /><path
         d="m 627.12219,212.01003 c -2.68253,-4.68909 -4.73181,-9.63952 -8.11669,-13.9592 4.32094,3.38363 9.27011,5.43416 13.9592,8.11669 10.02273,5.7332 16.73722,10.66101 20.94509,16.44321 -2.91749,3.93899 -6.4054,7.4269 -10.34439,10.34439 -5.7822,-4.20787 -10.71127,-10.92361 -16.44321,-20.94509"
         style="fill:#98ba06;fill-opacity:1;fill-rule:nonzero;stroke:none;stroke-width:1.25645"
         id="path3854" /><path
         d="m 607.62141,195.00002 c -5.09115,2.04802 -9.34299,5.31229 -14.00946,8.03125 -9.9775,5.81362 -17.60544,9.16458 -24.71822,9.91594 -1.92238,-4.41267 -3.21778,-9.16081 -3.77564,-14.13134 6.53355,-2.90115 14.81233,-3.81208 26.35537,-3.76685 5.4015,0.0226 10.71504,0.72121 16.14795,-0.049"
         style="fill:#98ba06;fill-opacity:1;fill-rule:nonzero;stroke:none;stroke-width:1.25645"
         id="path3858" /><path
         d="m 604.40173,213.82107 c 2.72022,-4.66773 5.98323,-8.91957 8.03125,-14.00946 -0.77146,5.4329 -0.0716,10.74519 -0.0503,16.14669 0.0465,11.5443 -0.86444,19.82433 -3.7656,26.35789 -4.97304,-0.56038 -9.71867,-1.85578 -14.13259,-3.77816 0.75261,-7.11278 4.10232,-14.73946 9.91719,-24.71696"
         style="fill:#98ba06;fill-opacity:1;fill-rule:nonzero;stroke:none;stroke-width:1.25645"
         id="path3862" /><path
         d="m 620.76631,195.00002 c 5.43291,0.77021 10.74645,0.0716 16.14795,0.049 11.54304,-0.0452 19.82182,0.8657 26.35537,3.76685 -0.55786,4.97053 -1.85326,9.71867 -3.77564,14.13134 -7.11404,-0.75136 -14.74072,-4.10232 -24.71822,-9.91594 -4.66647,-2.71896 -8.91831,-5.98323 -14.00946,-8.03125"
         style="fill:#98989a;fill-opacity:1;fill-rule:nonzero;stroke:none;stroke-width:1.25645"
         id="path3866" /><path
         d="m 632.96398,180.31032 c -4.68783,2.68253 -9.63826,4.73432 -13.95795,8.11669 3.38363,-4.32094 5.43417,-9.27011 8.1167,-13.95794 5.73194,-10.02399 10.65975,-16.73848 16.44321,-20.94635 3.93773,2.91749 7.4269,6.4054 10.34438,10.34439 -4.20786,5.7822 -10.92235,10.71127 -20.94634,16.44321"
         style="fill:#98989a;fill-opacity:1;fill-rule:nonzero;stroke:none;stroke-width:1.25645"
         id="path3870" /><path
         d="m 615.95522,199.81111 c 2.04802,5.09115 5.31103,9.34299 8.03125,14.00946 5.81487,9.97876 9.16332,17.60544 9.91594,24.71822 -4.41392,1.92238 -9.15955,3.21903 -14.1326,3.7769 -2.90115,-6.53356 -3.81082,-14.81359 -3.76433,-26.35538 0.0214,-5.40149 0.71995,-10.71629 -0.0503,-16.1492"
         style="fill:#98989a;fill-opacity:1;fill-rule:nonzero;stroke:none;stroke-width:1.25645"
         id="path3874" /><path
         d="m 612.43247,186.6662 c -2.04802,-5.09115 -5.31103,-9.34299 -8.03125,-14.00946 -5.81487,-9.97876 -9.16458,-17.60418 -9.91594,-24.71822 4.41392,-1.92238 9.15955,-3.21778 14.1326,-3.7769 2.89989,6.53481 3.81082,14.81359 3.76433,26.35538 -0.0214,5.40275 -0.71995,10.71629 0.0503,16.1492"
         style="fill:#98989a;fill-opacity:1;fill-rule:nonzero;stroke:none;stroke-width:1.25645"
         id="path3878" /><path
         d="m 591.47391,191.42819 c -11.5443,0.0452 -19.82182,-0.86318 -26.35663,-3.76559 0.55912,-4.97179 1.85452,-9.71867 3.7769,-14.1326 7.11152,0.75262 14.74071,4.10358 24.71696,9.91594 4.66772,2.72022 8.91957,5.98198 14.01072,8.03125 -5.43417,-0.7702 -10.74645,-0.0716 -16.14795,-0.049"
         style="fill:#98989a;fill-opacity:1;fill-rule:nonzero;stroke:none;stroke-width:1.25645"
         id="path3882" /><path
         d="m 574.47751,222.6101 c 4.20912,-5.7822 10.92235,-10.70876 20.94634,-16.44321 4.68658,-2.68253 9.63826,-4.73181 13.95795,-8.1167 -3.38363,4.32095 -5.43542,9.27012 -8.11669,13.95921 -5.7332,10.02147 -10.65976,16.73848 -16.44447,20.94509 -3.93647,-2.91749 -7.42564,-6.40415 -10.34313,-10.34439"
         style="fill:#98989a;fill-opacity:1;fill-rule:nonzero;stroke:none;stroke-width:1.25645"
         id="path3886" /></g></g><g
     style="display:inline"
     transform="matrix(1.3333333,0,0,-1.3333333,-753.48968,323.08825)"
     id="g6489"><g
       transform="matrix(0.45846058,0,0,0.45846058,306.03328,131.22377)"
       id="g6487"><path
         id="path6463"
         style="fill:#006fba;fill-opacity:1;fill-rule:nonzero;stroke:none;stroke-width:1.25645"
         d="m 601.26553,174.46731 c 2.68253,4.68909 4.73181,9.64077 8.11669,13.9592 -4.32094,-3.38363 -9.27137,-5.43416 -13.9592,-8.11669 -10.02273,-5.73194 -16.73722,-10.66101 -20.94509,-16.44321 2.91749,-3.93773 6.4054,-7.4269 10.34439,-10.34439 5.7822,4.20787 10.71127,10.92361 16.44321,20.94509" /><path
         id="path6465"
         style="fill:#006fba;fill-opacity:1;fill-rule:nonzero;stroke:none;stroke-width:1.25645"
         d="m 615.95522,186.6662 c 0.77021,-5.43291 0.0716,-10.74645 0.0503,-16.1492 -0.0465,-11.54179 0.86318,-19.82057 3.76433,-26.35538 4.97305,0.55912 9.71868,1.85452 14.1326,3.7769 -0.75262,7.11404 -4.10107,14.74072 -9.91594,24.71822 -2.72022,4.66647 -5.98323,8.91831 -8.03125,14.00946" /><path
         id="path6467"
         style="fill:#006fba;fill-opacity:1;fill-rule:nonzero;stroke:none;stroke-width:1.25645"
         d="m 620.76631,191.47731 c 5.09115,-2.04802 9.34299,-5.31103 14.00946,-8.03125 9.9775,-5.81362 17.60418,-9.16332 24.71822,-9.91594 1.92238,4.41392 3.21778,9.16081 3.77564,14.13134 -6.53355,2.90241 -14.81233,3.81334 -26.35537,3.76685 -5.4015,-0.0214 -10.71504,-0.72121 -16.14795,0.049" /><path
         id="path6469"
         style="fill:#006fba;fill-opacity:1;fill-rule:nonzero;stroke:none;stroke-width:1.25645"
         d="m 627.12219,212.01003 c -2.68253,-4.68909 -4.73181,-9.63952 -8.11669,-13.9592 4.32094,3.38363 9.27011,5.43416 13.9592,8.11669 10.02273,5.7332 16.73722,10.66101 20.94509,16.44321 -2.91749,3.93899 -6.4054,7.4269 -10.34439,10.34439 -5.7822,-4.20787 -10.71127,-10.92361 -16.44321,-20.94509" /><path
         id="path6471"
         style="fill:#006fba;fill-opacity:1;fill-rule:nonzero;stroke:none;stroke-width:1.25645"
         d="m 607.62141,195.00002 c -5.09115,2.04802 -9.34299,5.31229 -14.00946,8.03125 -9.9775,5.81362 -17.60544,9.16458 -24.71822,9.91594 -1.92238,-4.41267 -3.21778,-9.16081 -3.77564,-14.13134 6.53355,-2.90115 14.81233,-3.81208 26.35537,-3.76685 5.4015,0.0226 10.71504,0.72121 16.14795,-0.049" /><path
         id="path6473"
         style="fill:#006fba;fill-opacity:1;fill-rule:nonzero;stroke:none;stroke-width:1.25645"
         d="m 604.40173,213.82107 c 2.72022,-4.66773 5.98323,-8.91957 8.03125,-14.00946 -0.77146,5.4329 -0.0716,10.74519 -0.0503,16.14669 0.0465,11.5443 -0.86444,19.82433 -3.7656,26.35789 -4.97304,-0.56038 -9.71867,-1.85578 -14.13259,-3.77816 0.75261,-7.11278 4.10232,-14.73946 9.91719,-24.71696" /><path
         id="path6475"
         style="fill:#9d9d9d;fill-opacity:1;fill-rule:nonzero;stroke:none;stroke-width:1.25645"
         d="m 620.76631,195.00002 c 5.43291,0.77021 10.74645,0.0716 16.14795,0.049 11.54304,-0.0452 19.82182,0.8657 26.35537,3.76685 -0.55786,4.97053 -1.85326,9.71867 -3.77564,14.13134 -7.11404,-0.75136 -14.74072,-4.10232 -24.71822,-9.91594 -4.66647,-2.71896 -8.91831,-5.98323 -14.00946,-8.03125" /><path
         id="path6477"
         style="fill:#9d9d9d;fill-opacity:1;fill-rule:nonzero;stroke:none;stroke-width:1.25645"
         d="m 632.96398,180.31032 c -4.68783,2.68253 -9.63826,4.73432 -13.95795,8.11669 3.38363,-4.32094 5.43417,-9.27011 8.1167,-13.95794 5.73194,-10.02399 10.65975,-16.73848 16.44321,-20.94635 3.93773,2.91749 7.4269,6.4054 10.34438,10.34439 -4.20786,5.7822 -10.92235,10.71127 -20.94634,16.44321" /><path
         id="path6479"
         style="fill:#9d9d9d;fill-opacity:1;fill-rule:nonzero;stroke:none;stroke-width:1.25645"
         d="m 615.95522,199.81111 c 2.04802,5.09115 5.31103,9.34299 8.03125,14.00946 5.81487,9.97876 9.16332,17.60544 9.91594,24.71822 -4.41392,1.92238 -9.15955,3.21903 -14.1326,3.7769 -2.90115,-6.53356 -3.81082,-14.81359 -3.76433,-26.35538 0.0214,-5.40149 0.71995,-10.71629 -0.0503,-16.1492" /><path
         id="path6481"
         style="fill:#9d9d9d;fill-opacity:1;fill-rule:nonzero;stroke:none;stroke-width:1.25645"
         d="m 612.43247,186.6662 c -2.04802,-5.09115 -5.31103,-9.34299 -8.03125,-14.00946 -5.81487,-9.97876 -9.16458,-17.60418 -9.91594,-24.71822 4.41392,-1.92238 9.15955,-3.21778 14.1326,-3.7769 2.89989,6.53481 3.81082,14.81359 3.76433,26.35538 -0.0214,5.40275 -0.71995,10.71629 0.0503,16.1492" /><path
         id="path6483"
         style="fill:#9d9d9d;fill-opacity:1;fill-rule:nonzero;stroke:none;stroke-width:1.25645"
         d="m 591.47391,191.42819 c -11.5443,0.0452 -19.82182,-0.86318 -26.35663,-3.76559 0.55912,-4.97179 1.85452,-9.71867 3.7769,-14.1326 7.11152,0.75262 14.74071,4.10358 24.71696,9.91594 4.66772,2.72022 8.91957,5.98198 14.01072,8.03125 -5.43417,-0.7702 -10.74645,-0.0716 -16.14795,-0.049" /><path
         id="path6485"
         style="fill:#9d9d9d;fill-opacity:1;fill-rule:nonzero;stroke:none;stroke-width:1.25645"
         d="m 574.47751,222.6101 c 4.20912,-5.7822 10.92235,-10.70876 20.94634,-16.44321 4.68658,-2.68253 9.63826,-4.73181 13.95795,-8.1167 -3.38363,4.32095 -5.43542,9.27012 -8.11669,13.95921 -5.7332,10.02147 -10.65976,16.73848 -16.44447,20.94509 -3.93647,-2.91749 -7.42564,-6.40415 -10.34313,-10.34439" /></g></g><g
     id="layer1"
     style="display:inline;mix-blend-mode:darken"
     transform="translate(-4.2509602)"><g
       id="g3888"
       transform="matrix(0.76804617,0,0,-0.76804617,-685.51566,131.19588)"><g
         id="g3890" /><g
         id="g3924"><g
           clip-path="url(#clipPath3894)"
           id="g3922"
           style="opacity:0.410004"><g
             id="g3920"><g
               id="g3918"><g
                 id="g3916"><g
                   id="g3914"><path
                     d="m 938.58002,149.84 c 0.017,-4.29799 0.57397,-8.527 -0.039,-12.85199 v 0 c 1.63,4.05198 4.22796,7.43599 6.39099,11.151 v 0 c 4.62701,7.94099 7.294,14.00999 7.89398,19.67099 v 0 c -3.513,1.53 -7.29102,2.563 -11.24799,3.007 v 0 c -2.30999,-5.2 -3.03399,-11.79001 -2.99798,-20.977 M 921.453,167.81 c 0.599,-5.661 3.26502,-11.73 7.89301,-19.67099 v 0 c 2.16498,-3.71501 4.76001,-7.09902 6.39197,-11.151 v 0 c -0.61499,4.32499 -0.058,8.554 -0.04,12.85199 v 0 c 0.036,9.18699 -0.68701,15.777 -2.99701,20.977 v 0 C 928.74298,170.373 924.966,169.34 921.453,167.81 m 25.97602,-21.114 c -2.13501,-3.73 -3.76502,-7.67 -6.46003,-11.10899 v 0 c 3.43799,2.694 7.37799,4.32598 11.10999,6.45999 v 0 c 7.97601,4.56199 13.32104,8.485 16.67004,13.087 v 0 c -2.32299,3.135 -5.09802,5.911 -8.23303,8.233 v 0 c -4.60199,-3.34899 -8.52496,-8.693 -13.08697,-16.671 m -41.89801,8.438 c 3.34698,-4.602 8.69299,-8.52501 16.66796,-13.087 v 0 c 3.73304,-2.13401 7.67304,-3.76599 11.11103,-6.45999 v 0 c -2.69501,3.43899 -4.32599,7.37899 -6.461,11.10899 v 0 c -4.56299,7.978 -8.48401,13.32201 -13.086,16.671 v 0 c -3.13501,-2.322 -5.91199,-5.098 -8.23199,-8.233 m 47.98901,-15.584 c -3.71399,-2.16301 -7.09802,-4.761 -11.15002,-6.39 v 0 c 4.32501,0.612 8.55297,0.056 12.85101,0.038 v 0 c 9.18799,-0.036 15.77698,0.68899 20.97699,2.998 v 0 c -0.44397,3.95599 -1.47602,7.73601 -3.00501,11.24699 v 0 C 967.53198,146.845 961.461,144.177 953.52002,139.55 m -55.44104,-3.354 c 5.20203,-2.30901 11.79004,-3.034 20.97705,-2.998 v 0 c 4.29895,0.018 8.52698,0.574 12.85297,-0.038 v 0 c -4.05402,1.629 -7.43598,4.22699 -11.151,6.39 v 0 c -7.94202,4.627 -14.01203,7.295 -19.672,7.89299 v 0 c -1.53101,-3.51098 -2.56299,-7.291 -3.00702,-11.24699 m 55.44104,-12.232 c 7.94098,-4.627 14.01196,-7.293 19.67297,-7.893 v 0 c 1.52899,3.513 2.56104,7.291 3.00501,11.248 v 0 c -5.20001,2.31 -11.789,3.03301 -20.97699,2.996 v 0 c -4.29804,-0.017 -8.526,-0.573 -12.85101,0.04 v 0 c 4.052,-1.631 7.43603,-4.226 11.15002,-6.391 m -34.46399,6.351 c -9.18701,0.037 -15.77502,-0.686 -20.97705,-2.996 v 0 c 0.44403,-3.957 1.47601,-7.735 3.00702,-11.248 v 0 c 5.65997,0.6 11.72998,3.266 19.672,7.893 v 0 c 3.71502,2.165 7.09698,4.76 11.151,6.391 v 0 c -4.32599,-0.613 -8.55402,-0.057 -12.85297,-0.04 m 28.37299,-13.498 c 4.56201,-7.975 8.48498,-13.32 13.08697,-16.669 v 0 c 3.13501,2.321 5.91004,5.098 8.23303,8.233 v 0 c -3.349,4.601 -8.69403,8.525 -16.67004,13.087 v 0 c -3.732,2.134 -7.672,3.766 -11.10999,6.461 v 0 c 2.69501,-3.439 4.32502,-7.379 6.46003,-11.112 m -25.23005,4.651 c -7.97497,-4.562 -13.32098,-8.486 -16.66796,-13.087 v 0 c 2.32,-3.135 5.09698,-5.912 8.23199,-8.233 v 0 c 4.60199,3.349 8.52301,8.694 13.086,16.669 v 0 c 2.13501,3.733 3.76599,7.673 6.461,11.112 v 0 c -3.43799,-2.695 -7.37799,-4.327 -11.11103,-6.461 m 16.38105,-7.794 c -0.036,-9.187 0.68799,-15.775997 2.99798,-20.977001 v 0 c 3.95697,0.445999 7.73499,1.477005 11.24799,3.006004 v 0 C 952.22601,101.365 949.55902,107.436 944.93201,115.376 v 0 c -2.16303,3.715 -4.76099,7.099 -6.39099,11.151 v 0 c 0.61297,-4.325 0.056,-8.553 0.039,-12.853 m -9.23401,1.702 C 924.71802,107.435 922.052,101.365 921.453,95.703003 v 0 c 3.513,-1.528999 7.28998,-2.560005 11.24799,-3.006004 v 0 c 2.31,5.201004 3.03302,11.790001 2.99701,20.977001 v 0 c -0.018,4.3 -0.57501,8.528 0.04,12.853 v 0 c -1.63196,-4.052 -4.22699,-7.436 -6.39197,-11.151"
                     style="fill:url(#linearGradient3910);stroke:none;stroke-width:0.99994;stroke-miterlimit:4;stroke-dasharray:none"
                     id="path3912" /></g></g></g></g></g></g></g></g></svg>
