<?xml version="1.0" encoding="UTF-8" standalone="no"?>
<svg
   xmlns:dc="http://purl.org/dc/elements/1.1/"
   xmlns:cc="http://creativecommons.org/ns#"
   xmlns:rdf="http://www.w3.org/1999/02/22-rdf-syntax-ns#"
   xmlns:svg="http://www.w3.org/2000/svg"
   xmlns="http://www.w3.org/2000/svg"
   id="svg864"
   viewBox="0 0 2777.77 1694.44"
   style="shape-rendering:geometricPrecision; text-rendering:geometricPrecision; image-rendering:optimizeQuality; fill-rule:evenodd; clip-rule:evenodd"
   version="1.1"
   height="1.69444in"
   width="2.77777in"
   xml:space="preserve"><metadata
   id="metadata868"><rdf:RDF><cc:Work
       rdf:about=""><dc:format>image/svg+xml</dc:format><dc:type
         rdf:resource="http://purl.org/dc/dcmitype/StillImage" /><dc:title></dc:title></cc:Work></rdf:RDF></metadata>
 <defs
   id="defs835">
  <style
   id="style833"
   type="text/css">
   <![CDATA[
    .fil1 {fill:#00A1E4;fill-rule:nonzero}
    .fil0 {fill:#4D545B;fill-rule:nonzero}
    .fil2 {fill:#F4821F;fill-rule:nonzero}
   ]]>
  </style>
 </defs>
 <g
   id="Layer_x0020_1">
  <metadata
   id="CorelCorpID_0Corel-Layer" />
  <g
   id="_4915741104">
   <polygon
   id="polygon838"
   points="2463.81,458.5 2360.22,458.5 2053.94,883.64 2105.98,955.04 "
   class="fil0" />
   <polygon
   id="polygon840"
   points="2770.83,246.59 2667.24,246.59 2129.78,990.9 2181.8,1062.31 "
   class="fil1" />
   <polygon
   id="polygon842"
   points="1783.9,822.45 1267.13,1538.11 1370.74,1538.11 1835.92,893.87 "
   class="fil0" />
   <polygon
   id="polygon844"
   points="2633.86,4.11 2530.26,4.11 1312.67,1690.33 1416.27,1690.33 "
   class="fil2" />
   <polygon
   id="polygon846"
   points="280.34,704.86 6.94,704.86 6.94,764.24 208.88,764.24 208.88,1016.63 280.34,1016.63 "
   class="fil0" />
   <polygon
   id="polygon848"
   points="6.94,1016.63 78.42,1016.63 78.42,834.31 6.94,834.31 "
   class="fil0" />
   <path
   id="path850"
   d="M563.28 809.96c0,-70.07 -39.31,-105.12 -117.93,-105.12l-109.61 0 0 59.39 105.44 0c38.12,0 50.64,11.89 50.64,49.89l0 202.51 71.47 0 0 -206.67z"
   class="fil0" />
   <path
   id="path852"
   d="M930.8 824.81c0,-36.82 -8.34,-66.51 -25.03,-88.49 -18.45,-24.93 -45.26,-37.41 -81,-37.41 -29.78,0 -48.24,3.56 -55.38,10.69l0 57.61c2.96,-7.12 16.07,-10.69 39.91,-10.69 17.28,0 30.98,7.73 39.9,22.56 7.16,12.47 10.74,28.51 10.74,46.93 0,38.01 -8.94,68.89 -26.81,92.04 -19.66,26.15 -47.67,39.21 -84.6,39.21l-27.99 0 -20.24 -252.39 -71.49 0 26.81 311.78 98.3 0c54.2,0 97.67,-18.41 130.45,-55.83 30.95,-35.64 46.45,-80.76 46.45,-136z"
   class="fil0" />
   <path
   id="path854"
   d="M1218.52 764.24c0,128.88 -35.74,193.01 -107.25,193.01l-32.14 0 -15.5 -193.01 154.89 0zm71.48 -59.39l0 0 -302.61 0 26.8 311.78 96.5 0c95.91,0 153.08,-57.6 171.56,-173.4 5.35,-32.68 7.75,-78.41 7.75,-138.37z"
   class="fil0" />
   <polygon
   id="polygon856"
   points="1352.53,704.86 1352.53,764.24 1572.92,764.24 1487.15,1016.63 1559.23,1016.63 1665.85,704.86 "
   class="fil0" />
   <polygon
   id="polygon858"
   points="1357.89,1199.43 1429.37,1199.43 1429.37,834.31 1357.89,834.31 "
   class="fil0" />
   <polygon
   id="polygon860"
   points="1788.63,604.75 1685.04,604.75 2126.56,1216.24 2230.17,1216.24 "
   class="fil0" />
   </g>
 </g>
</svg>
