<?xml version="1.0" encoding="UTF-8" standalone="no"?>
<svg
   xmlns:dc="http://purl.org/dc/elements/1.1/"
   xmlns:cc="http://creativecommons.org/ns#"
   xmlns:rdf="http://www.w3.org/1999/02/22-rdf-syntax-ns#"
   xmlns:svg="http://www.w3.org/2000/svg"
   xmlns="http://www.w3.org/2000/svg"
   width="71.123108"
   height="60"
   viewBox="0 0 18.817988 15.875001"
   version="1.1"
   id="svg1467">
  <defs
     id="defs1461" />
  <metadata
     id="metadata1464">
    <rdf:RDF>
      <cc:Work
         rdf:about="">
        <dc:format>image/svg+xml</dc:format>
        <dc:type
           rdf:resource="http://purl.org/dc/dcmitype/StillImage" />
        <dc:title></dc:title>
      </cc:Work>
    </rdf:RDF>
  </metadata>
  <g
     id="layer1"
     transform="matrix(0.48056564,0,0,0.48056564,-23.141358,-131.96935)">
    <g
       id="g7351"
       transform="translate(26.52952,13.630746)">
      <g
         id="g1098"
         transform="matrix(0.69954952,0,0,-0.69954952,32.094327,294.01558)"
         style="fill:#244784;fill-opacity:1">
        <path
           d="m 0,0 h -11.195 l -1.913,10.919 h 6.941 c 1.991,0 3.438,-0.745 4.341,-2.236 0.272,-0.449 0.451,-0.919 0.537,-1.411 z M -3.594,2.171 -4.299,6.273 C -4.443,7.084 -4.657,7.67 -4.943,8.032 -5.316,8.495 -5.881,8.727 -6.639,8.727 h -2.877 l 1.127,-6.556 z"
           style="fill:#244784;fill-opacity:1;fill-rule:nonzero;stroke:none"
           id="path1100" />
      </g>
      <g
         id="g1102"
         transform="matrix(0.69954952,0,0,-0.69954952,35.611942,294.01558)"
         style="fill:#244784;fill-opacity:1">
        <path
           d="m 0,0 h -3.185 l -1.556,8.771 c -0.174,0.94 -0.399,1.656 -0.674,2.148 h 3.094 c 0.387,-0.666 0.652,-1.397 0.795,-2.192 z"
           style="fill:#244784;fill-opacity:1;fill-rule:nonzero;stroke:none"
           id="path1104" />
      </g>
      <g
         id="g1106"
         transform="matrix(0.69954952,0,0,-0.69954952,42.932588,294.01558)"
         style="fill:#244784;fill-opacity:1">
        <path
           d="M 0,0 H -3.403 L -3.926,3.127 C -4.155,4.545 -4.306,5.406 -4.377,5.71 -4.636,6.94 -4.908,7.728 -5.195,8.075 -5.568,8.524 -6.17,8.748 -7.002,8.748 h -3.742 l -0.366,2.171 h 4.857 c 1.59,0 2.721,-0.231 3.395,-0.695 C -2.099,9.703 -1.562,8.682 -1.246,7.162 -1.022,6.047 -0.763,4.556 -0.468,2.689 -0.334,1.908 -0.178,1.012 0,0"
           style="fill:#244784;fill-opacity:1;fill-rule:nonzero;stroke:none"
           id="path1108" />
      </g>
      <g
         id="g1110"
         transform="matrix(0.69954952,0,0,-0.69954952,49.997758,287.91082)"
         style="fill:#244784;fill-opacity:1">
        <path
           d="m 0,0 h -2.299 l 1.525,-8.727 H -3.981 L -5.507,0 h -4.808 l -0.386,2.193 h 10.314 z"
           style="fill:#244784;fill-opacity:1;fill-rule:nonzero;stroke:none"
           id="path1112" />
      </g>
      <g
         id="g1122"
         transform="matrix(0.69954952,0,0,-0.69954952,59.48316,294.01558)"
         style="fill:#244784;fill-opacity:1">
        <path
           d="m 0,0 h -10.895 l -0.365,2.171 h 3.868 c 1.404,0 2.106,0.73 2.106,2.192 0,0.434 -0.036,0.854 -0.108,1.259 -0.186,1.086 -0.523,1.86 -1.01,2.323 -0.515,0.521 -1.303,0.782 -2.363,0.782 h -3.783 l -0.386,2.192 h 4.77 c 1.748,0 3.105,-0.387 4.072,-1.161 0.967,-0.775 1.615,-2.016 1.945,-3.723 0.086,-0.463 0.129,-0.876 0.129,-1.238 0,-0.854 -0.222,-1.505 -0.666,-1.953 L -3.073,2.562 C -3.489,2.388 -3.696,2.265 -3.696,2.193 c 0,-0.03 0.1,-0.066 0.301,-0.109 0.129,0 0.322,0.014 0.58,0.043 0.258,0.029 0.451,0.044 0.58,0.044 h 1.87 z"
           style="fill:#244784;fill-opacity:1;fill-rule:nonzero;stroke:none"
           id="path1124" />
      </g>
    </g>
    <g
       id="g7323"
       transform="translate(22.333645,-20.091865)">
      <path
         id="path1624"
         style="fill:#244784;fill-opacity:1;fill-rule:nonzero;stroke:none;stroke-width:1.20642"
         d="m 25.820771,294.70441 c 5.344444,1.56473 10.524814,1.84462 10.524814,1.84462 2.145016,4.82688 3.499826,7.30608 6.133441,12.04731 2.161906,3.89192 3.590308,5.98868 6.151539,9.62241 -1.558695,0.14115 -1.941131,0.19062 -3.345404,-0.35106 -0.478949,-0.18579 -1.008568,-0.66716 -1.464595,-1.28243 l -8.754994,-12.90629 c -0.926531,-0.13149 -1.457356,-0.31125 -2.281341,-0.77452 -0.874655,-0.49222 -1.336714,-0.88672 -1.971291,-1.68416 z" />
      <path
         id="path1626"
         style="fill:#244784;fill-opacity:1;fill-rule:nonzero;stroke:none;stroke-width:1.20642"
         d="m 37.655757,296.71552 2.693937,5.70516 c 0.211124,0.37278 0.375197,0.56943 0.703344,0.83605 0.47171,0.38484 0.825191,0.53685 1.419957,0.61406 l 3.589101,0.0193 1.425989,2.20293 c 0.364338,0.61527 0.659912,0.93135 1.2402,1.32948 0.583908,0.40173 0.984439,0.55977 1.678132,0.66474 h 2.698762 c -2.013515,-2.99676 -1.79274,-4.19715 -1.79274,-4.19715 5.410795,-1.05199 7.207157,-2.53951 7.207157,-2.53951 -1.889256,0.46568 -4.285208,0.88189 -4.736408,0.86983 l -0.252143,-0.57667 c 1.774646,-0.29678 3.117391,-0.59718 4.025826,-0.78779 0.88672,-0.20389 1.510439,-0.31971 2.697556,-0.91447 0.5634,-0.2835 0.843288,-0.5441 1.313793,-0.99771 0,0 -1.628668,0.55254 -3.403314,0.86259 -3.433471,0.59959 -5.198466,0.58753 -5.198466,0.58753 l -0.22198,-0.56701 c 2.213782,-0.21234 3.339371,-0.40295 5.326346,-0.75885 2.482814,-0.44276 4.141642,-0.75884 5.466293,-2.03643 -1.849443,0.57304 -3.502241,0.789 -5.769104,1.10628 -2.176381,0.30523 -3.416583,0.38605 -5.607442,0.51273 l -0.207505,-0.51393 c 2.252388,-0.10617 3.633739,-0.30885 5.641222,-0.58994 3.776098,-0.52842 6.483305,-1.25106 7.384501,-2.29702 -5.936795,1.09904 -9.350967,1.65279 -15.374625,1.69863 -4.784663,0.0362 -7.301257,0.12064 -11.948389,-0.23283" />
    </g>
  </g>
</svg>
