<?xml version="1.0" encoding="UTF-8" standalone="no"?>
<svg
   xmlns:dc="http://purl.org/dc/elements/1.1/"
   xmlns:cc="http://creativecommons.org/ns#"
   xmlns:rdf="http://www.w3.org/1999/02/22-rdf-syntax-ns#"
   xmlns:svg="http://www.w3.org/2000/svg"
   xmlns="http://www.w3.org/2000/svg"
   xmlns:sodipodi="http://sodipodi.sourceforge.net/DTD/sodipodi-0.dtd"
   xmlns:inkscape="http://www.inkscape.org/namespaces/inkscape"
   inkscape:version="1.0rc1 (09960d6, 2020-04-09)"
   sodipodi:docname="agency-3.svg"
   xml:space="preserve"
   enable-background="new 0 0 322.753 322.79"
   viewBox="0 0 59.993307 59.999998"
   height="60"
   width="59.993305"
   y="0px"
   x="0px"
   id="Layer_1"
   version="1.1"><metadata
     id="metadata1188"><rdf:RDF><cc:Work
         rdf:about=""><dc:format>image/svg+xml</dc:format><dc:type
           rdf:resource="http://purl.org/dc/dcmitype/StillImage" /><dc:title></dc:title></cc:Work></rdf:RDF></metadata><defs
     id="defs1186" /><sodipodi:namedview
     fit-margin-bottom="0"
     fit-margin-right="0"
     fit-margin-left="0"
     fit-margin-top="0"
     inkscape:current-layer="Layer_1"
     inkscape:window-maximized="0"
     inkscape:window-y="138"
     inkscape:window-x="242"
     inkscape:cy="161.395"
     inkscape:cx="29.145916"
     inkscape:zoom="1.0285325"
     showgrid="false"
     id="namedview1184"
     inkscape:window-height="701"
     inkscape:window-width="1251"
     inkscape:pageshadow="2"
     inkscape:pageopacity="0"
     guidetolerance="10"
     gridtolerance="10"
     objecttolerance="10"
     borderopacity="1"
     bordercolor="#666666"
     pagecolor="#ffffff" /><g
     transform="scale(0.18587936)"
     id="g1755"><path
       inkscape:connector-curvature="0"
       fill-rule="evenodd"
       clip-rule="evenodd"
       fill="#00a65d"
       d="m 69.671,322.661 -0.136,-29.272 c 0,-3.086 -2.498,-5.583 -5.58,-5.583 H 47.824 v 11.166 h 10.607 v 12.042 H 47.387 l -7.779,11.647 -0.07,-23.679 h 4.557 l 0.003,-11.191 h -20.6 L 108.697,161.34 0.011,0.026 85.008,0.07 c 13.204,0 24.937,6.801 31.771,17.003 l 44.583,66.1 19.614,-28.99 25.613,-37.765 C 213.463,6.495 224.92,0 237.906,0 l 84.703,0.004 0.037,17.462 c 0,9.732 -7.827,17.625 -17.471,17.625 l -58.574,0.003 -3.914,5.995 h 80.018 l 0.015,17.422 c 0,9.735 -7.771,17.658 -17.415,17.658 h -86.453 l -4.075,6.054 107.977,-0.025 v 17.327 c 0,9.728 -7.988,17.716 -17.658,17.716 l -113.901,0.011 -4.005,6.028 52.204,0.007 -25.312,38.115 108.583,161.266 -84.592,-0.019 c -13.142,0 -25.172,-6.58 -32.017,-16.705 l -44.683,-66.423 -55.64,82.47 -11.163,-16.731 11.674,-17.47 -10.313,0.007 c -1.865,0 -3.517,0.916 -4.531,2.325 l -3.49,5.358 -3.564,-5.406 c -1.015,-1.395 -2.655,-2.299 -4.509,-2.299 l -10.276,-0.011 11.703,17.499 z"
       id="path1175" /><path
       inkscape:connector-curvature="0"
       fill-rule="evenodd"
       clip-rule="evenodd"
       fill="none"
       d="M 39.607,322.661"
       id="path1177" /><path
       inkscape:connector-curvature="0"
       fill-rule="evenodd"
       clip-rule="evenodd"
       fill="none"
       d="M 69.671,322.661"
       id="path1179" /><path
       inkscape:connector-curvature="0"
       fill-rule="evenodd"
       clip-rule="evenodd"
       fill="#00a65d"
       d="M 94.945,322.661 H 81.051 c -0.376,0.081 -0.766,0.122 -1.162,0.122 H 69.594 l -11.166,-0.004 -7.419,-0.118 c -0.382,0.085 -0.779,0.129 -1.184,0.129 l -10.288,-0.022 c -11.155,0 -11.155,0.016 -11.155,0.016 L 0,322.665 15.955,298.982 h 12.427 v 23.683 c 0,0.118 0,0.103 11.155,0.103 l 10.288,0.022 c 0.404,0 0.802,-0.044 1.184,-0.129 1.413,-0.302 2.626,-1.14 3.417,-2.291 l 4.006,-6.047 -0.004,8.338 11.166,0.122 h 10.295 c 0.396,0 0.786,-0.041 1.162,-0.122 1.423,-0.298 2.647,-1.14 3.442,-2.295 l 3.417,-5.26 3.493,5.285 c 0.825,1.166 2.086,2.001 3.542,2.27 z"
       id="path1181" /></g></svg>
