<?xml version="1.0" encoding="UTF-8" standalone="no"?>
<svg
   xmlns:dc="http://purl.org/dc/elements/1.1/"
   xmlns:cc="http://creativecommons.org/ns#"
   xmlns:rdf="http://www.w3.org/1999/02/22-rdf-syntax-ns#"
   xmlns:svg="http://www.w3.org/2000/svg"
   xmlns="http://www.w3.org/2000/svg"
   xmlns:sodipodi="http://sodipodi.sourceforge.net/DTD/sodipodi-0.dtd"
   xmlns:inkscape="http://www.inkscape.org/namespaces/inkscape"
   inkscape:version="1.0rc1 (09960d6, 2020-04-09)"
   sodipodi:docname="agency-4.svg"
   width="59.999996"
   height="52.037605"
   viewBox="0 0 15.874999 13.768283"
   version="1.1"
   id="svg8">
  <sodipodi:namedview
     inkscape:current-layer="svg8"
     inkscape:window-maximized="0"
     inkscape:window-y="25"
     inkscape:window-x="0"
     inkscape:cy="26.018802"
     inkscape:cx="5.4216866"
     inkscape:zoom="5.5333333"
     fit-margin-bottom="0"
     fit-margin-right="0"
     fit-margin-left="0"
     fit-margin-top="0"
     showgrid="false"
     id="namedview4570"
     inkscape:window-height="480"
     inkscape:window-width="802"
     inkscape:pageshadow="2"
     inkscape:pageopacity="0"
     guidetolerance="10"
     gridtolerance="10"
     objecttolerance="10"
     borderopacity="1"
     bordercolor="#666666"
     pagecolor="#ffffff" />
  <defs
     id="defs2">
    <clipPath
       clipPathUnits="userSpaceOnUse"
       id="clipPath4432">
      <path
         inkscape:connector-curvature="0"
         d="M 0,0 H 419.528 V 595.276 H 0 Z"
         id="path4430" />
    </clipPath>
    <clipPath
       clipPathUnits="userSpaceOnUse"
       id="clipPath4412">
      <path
         inkscape:connector-curvature="0"
         d="M 0,0 H 419.528 V 595.276 H 0 Z"
         id="path4410" />
    </clipPath>
  </defs>
  <metadata
     id="metadata5">
    <rdf:RDF>
      <cc:Work
         rdf:about="">
        <dc:format>image/svg+xml</dc:format>
        <dc:type
           rdf:resource="http://purl.org/dc/dcmitype/StillImage" />
        <dc:title></dc:title>
      </cc:Work>
    </rdf:RDF>
  </metadata>
  <g
     id="layer1"
     transform="translate(-3.2874641e-8,-284.82418)">
    <g
       id="g2476"
       transform="matrix(1.099942,0,0,1.099942,-19.536554,-27.307264)">
      <g
         transform="matrix(0.31334573,0,0,-0.31334573,27.589529,287.66185)"
         id="g4438">
        <path
           inkscape:connector-curvature="0"
           id="path4440"
           style="fill:#b7d433;fill-opacity:1;fill-rule:nonzero;stroke:none"
           d="m 0,0 -8.091,-10.502 -2.461,-3.246 10.557,-13.737 -8.224,10e-4 c -1.278,0 -2.448,0.56 -3.113,1.423 l -4.344,5.658 -5.454,-7.082 h -10.235 l 10.567,13.742 -10.566,13.741 8.263,-0.003 c 1.284,0 2.425,-0.58 3.089,-1.449 l 4.335,-5.63 1.907,2.469 2.49,3.217 C -10.612,-0.553 -9.498,0 -8.236,0 Z" />
      </g>
      <g
         transform="matrix(0.31334573,0,0,-0.31334573,32.189632,287.6783)"
         id="g4442">
        <path
           inkscape:connector-curvature="0"
           id="path4444"
           style="fill:#007035;fill-opacity:1;fill-rule:nonzero;stroke:none"
           d="m 0,0 0.003,-1.487 c 0,-0.829 -0.76,-1.501 -1.697,-1.501 h -5.695 l -0.38,-0.511 h 7.778 l 0.002,-1.484 c 0,-0.828 -0.756,-1.503 -1.693,-1.503 h -8.404 L -10.482,-7.002 0.014,-7 v -1.475 c 0,-0.828 -0.777,-1.509 -1.717,-1.509 h -11.072 l -0.389,-0.514 h 5.075 l -2.461,-3.246 10.555,-13.733 -8.223,0.001 c -1.277,0 -2.447,0.561 -3.112,1.423 l -4.343,5.656 -5.453,-7.08 H -31.36 l 10.566,13.738 -10.565,13.737 8.263,-0.004 c 1.282,0 2.423,-0.579 3.087,-1.448 l 4.335,-5.628 1.906,2.468 2.49,3.216 C -10.61,-0.553 -9.496,0 -8.234,0 Z" />
      </g>
      <g
         id="g4406"
         transform="matrix(0.31334573,0,0,-0.31334573,-45.440676,329.46985)">
        <g
           clip-path="url(#clipPath4412)"
           id="g4408">
          <g
             transform="translate(226.1195,140.4252)"
             id="g4414">
            <path
               inkscape:connector-curvature="0"
               id="path4416"
               style="fill:#007035;fill-opacity:1;fill-rule:nonzero;stroke:none"
               d="m 0,0 c 0,2.992 2.767,5.417 6.183,5.417 3.414,0 6.183,-2.425 6.183,-5.417 0,-2.993 -2.769,-5.418 -6.183,-5.418 C 2.767,-5.418 0,-2.993 0,0" />
          </g>
          <g
             transform="translate(211.2624,140.3469)"
             id="g4418">
            <path
               inkscape:connector-curvature="0"
               id="path4420"
               style="fill:#b7d433;fill-opacity:1;fill-rule:nonzero;stroke:none"
               d="m 0,0 c 0,2.992 2.767,5.416 6.181,5.416 3.415,0 6.183,-2.424 6.183,-5.416 0,-2.991 -2.768,-5.416 -6.183,-5.416 C 2.767,-5.416 0,-2.991 0,0" />
          </g>
        </g>
      </g>
    </g>
  </g>
</svg>
