<?xml version="1.0" encoding="UTF-8" standalone="no"?>
<svg
   xmlns:dc="http://purl.org/dc/elements/1.1/"
   xmlns:cc="http://creativecommons.org/ns#"
   xmlns:rdf="http://www.w3.org/1999/02/22-rdf-syntax-ns#"
   xmlns:svg="http://www.w3.org/2000/svg"
   xmlns="http://www.w3.org/2000/svg"
   id="svg2064"
   version="1.1"
   viewBox="0 0 43.990654 15.875"
   height="15.875mm"
   width="43.990654mm">
  <defs
     id="defs2058" />
  <metadata
     id="metadata2061">
    <rdf:RDF>
      <cc:Work
         rdf:about="">
        <dc:format>image/svg+xml</dc:format>
        <dc:type
           rdf:resource="http://purl.org/dc/dcmitype/StillImage" />
        <dc:title></dc:title>
      </cc:Work>
    </rdf:RDF>
  </metadata>
  <g
     transform="translate(131.72627,-34.172004)"
     id="layer1">
    <g
       transform="matrix(0.09563182,0,0,0.09563182,-119.12905,30.904073)"
       id="g2691">
      <path
         style="fill:#211e1e;fill-opacity:1;fill-rule:nonzero;stroke:none;stroke-width:0.352777"
         d="m -131.72627,119.17078 h 25.00726 V 34.172004 h 94.999193 V 154.19776 h -34.9691 V 69.198977 h -25.00863 v 84.998783 h -60.028723 z m 0,0"
         id="path863" />
      <path
         style="fill:#211e1e;fill-opacity:1;fill-rule:nonzero;stroke:none;stroke-width:0.352777"
         d="M 35.805963,89.228764 V 34.172004 H 0.78450333 v 55.05676 z m 0,0"
         id="path865" />
      <path
         style="fill:#211e1e;fill-opacity:1;fill-rule:nonzero;stroke:none;stroke-width:0.352777"
         d="m 88.311973,154.19776 h -54.99612 v -35.02698 h 19.97466 V 34.172004 h 35.02146 z m 0,0"
         id="path867" />
      <path
         style="fill:#211e1e;fill-opacity:1;fill-rule:nonzero;stroke:none;stroke-width:0.352777"
         d="m 328.27389,79.21456 v 74.9832 h -99.98082 v -35.02698 h 14.99446 V 79.21456 Z m 0,0"
         id="path869" />
      <path
         style="fill:#211e1e;fill-opacity:1;fill-rule:nonzero;stroke:none;stroke-width:0.352777"
         d="M 143.25712,154.19776 V 64.21737 h -34.96911 v 89.98039 z m 0,0"
         id="path871" />
      <path
         style="fill:#f57a11;fill-opacity:1;fill-rule:nonzero;stroke:none;stroke-width:0.352777"
         d="M 143.25712,54.203167 V 34.172004 h -34.96911 v 20.031163 z m 0,0"
         id="path873" />
      <path
         style="fill:#211e1e;fill-opacity:1;fill-rule:nonzero;stroke:none;stroke-width:0.352777"
         d="M 195.76313,34.172004 V 79.21456 L 218.28025,34.172004 H 328.27389 V 69.198977 H 239.91547 L 197.42228,154.19776 H 158.25153 L 190.7815,89.228764 h -30.03984 v -55.05676 z m 0,0"
         id="path875" />
      <path
         style="fill:#f57a11;fill-opacity:1;fill-rule:nonzero;stroke:none;stroke-width:0.352777"
         d="m 88.311973,184.19076 v -20.02979 h -35.02146 v 20.02979 z m 0,0"
         id="path877" />
      <path
         style="fill:#211e1e;fill-opacity:1;fill-rule:nonzero;stroke:none;stroke-width:0.352777"
         d="m 148.23735,176.19952 6.12261,7.99124 h -6.33071 l -2.95727,-3.89158 -2.95588,3.89158 h -6.33071 l 6.12262,-7.99124 -6.12262,-8.04362 h 6.27835 l 3.00824,3.94395 2.95727,-3.94395 h 6.33071 z m 0,0"
         id="path879" />
      <path
         style="fill:#211e1e;fill-opacity:1;fill-rule:nonzero;stroke:none;stroke-width:0.352777"
         d="m 114.25354,163.17429 v 4.98161 h -7.41936 v 16.03486 h -5.03259 V 168.1559 h -7.471727 v -4.98161 z m 0,0"
         id="path881" />
      <path
         style="fill:#211e1e;fill-opacity:1;fill-rule:nonzero;stroke:none;stroke-width:0.352777"
         d="m 133.76244,184.19076 h -13.48963 c -2.20762,0 -3.99631,-1.7887 -3.99631,-3.99632 0,-2.20623 1.78869,-3.99492 3.99631,-3.99492 h 8.50801 v -4.04869 H 116.2765 v -3.99493 h 13.491 c 2.20623,0 3.99494,1.7887 3.99494,3.99493 z m 0,0"
         id="path883" />
      <path
         style="fill:#ffffff;fill-opacity:1;fill-rule:nonzero;stroke:none;stroke-width:0.352777"
         d="m 128.78082,182.16642 h -7.52271 v -3.99493 h 7.52271 z m 0,0"
         id="path885" />
      <path
         style="fill:#211e1e;fill-opacity:1;fill-rule:nonzero;stroke:none;stroke-width:0.352777"
         d="m 156.38291,184.19076 h 4.98163 V 168.1559 h -4.98163 z m 0,0"
         id="path887" />
      <path
         style="fill:#211e1e;fill-opacity:1;fill-rule:nonzero;stroke:none;stroke-width:0.352777"
         d="m 156.38291,167.16923 h 4.98163 v -3.99494 h -4.98163 z m 0,0"
         id="path889" />
      <path
         style="fill:#211e1e;fill-opacity:1;fill-rule:nonzero;stroke:none;stroke-width:0.352777"
         d="m 40.320423,170.69839 v -5.0326 h -3.99632 v 5.0326 z m 0,0"
         id="path891" />
      <path
         style="fill:#211e1e;fill-opacity:1;fill-rule:nonzero;stroke:none;stroke-width:0.352777"
         d="m 32.796333,184.19076 c -2.20624,0 -3.99494,-1.7887 -3.99494,-3.99632 v -21.01508 h 0.98668 c 2.20486,0 3.99355,1.78732 3.99355,3.99493 v 15.98249 h 7.52409 v -3.47679 c 0,-2.20624 1.7887,-3.99493 3.99493,-3.99493 h 0.9853 v 8.50938 c 0,2.20762 -1.78731,3.99632 -3.99493,3.99632 z m 0,0"
         id="path893" />
      <path
         style="fill:#211e1e;fill-opacity:1;fill-rule:nonzero;stroke:none;stroke-width:0.352777"
         d="m 46.285943,165.66579 h -3.99493 v 5.0326 h 3.99493 z m 0,0"
         id="path895" />
      <path
         style="fill:#211e1e;fill-opacity:1;fill-rule:nonzero;stroke:none;stroke-width:0.352777"
         d="m -33.717437,195.19163 h -3.99631 v 4.98161 h 3.99631 z m 0,0"
         id="path897" />
      <path
         style="fill:#211e1e;fill-opacity:1;fill-rule:nonzero;stroke:none;stroke-width:0.352777"
         d="m -48.711867,194.20496 v -11.00088 c 0,-2.23518 1.78731,-4.0473 3.99355,-4.0473 h 1.03766 v 10.01558 h 12.50432 v -10.01558 h 6.9522 c 0.62701,-1.50619 2.10565,-2.49149 3.73587,-2.49149 h 0.98529 v 2.49149 h 2.02434 v -0.98529 c 0,-2.20762 1.78869,-3.99632 3.99493,-3.99632 h 0.9853 v 4.98161 h 2.02434 v -3.47679 c 0,-2.20624 1.7873203,-3.99493 3.9949303,-3.99493 h 0.9853 v 7.47172 H 20.811533 v -2.49149 H -1.7056067 v -1.24437 c 0.0648,-1.21405 0.67523,-2.33991 1.65915003,-3.062 l 18.57457967,-10.68944 0.46716,0.88194 c 1.11759,1.92099 0.46715,4.36011 -1.45246,5.44877 l -6.32933,3.68487 h 10.58334 c 2.20624,0 3.99493,1.78869 3.99493,3.99493 v 4.51445 c 0,2.20762 -1.78869,3.99632 -3.99493,3.99632 h -47.99156 v 5.9669 c 0,2.23518 -1.78869,4.0473 -3.99493,4.0473 z m 0,0"
         id="path899" />
      <path
         style="fill:#211e1e;fill-opacity:1;fill-rule:nonzero;stroke:none;stroke-width:0.352777"
         d="m -39.684347,195.19163 h -3.99631 v 4.98161 h 3.99631 z m 0,0"
         id="path901" />
    </g>
  </g>
</svg>
