<?xml version="1.0" encoding="UTF-8"?>
<svg width="27" height="27" version="1.1" viewBox="0 0 7.1437 7.1438" xmlns="http://www.w3.org/2000/svg"><g transform="translate(0 -289.86)"><g transform="translate(.39688 -.27771)"><rect x=".3175" y="292.9" width="5.684" height="3.2097" fill="#fff"/><rect x=".3175" y="291.81" width="5.684" height="1.3048" fill="#f53400"/><g fill="none" stroke="#fff" stroke-linecap="round" stroke-width=".79375"><path transform="translate(-.061984 .10587)" d="m2.6196 291.09v1.0525"/><path transform="translate(-.061984 .10587)" d="m3.8543 291.09v1.0525"/><path transform="translate(-.061984 .10587)" d="m5.0891 291.09v1.0525"/><path transform="translate(-.061984 .10587)" d="m1.3849 291.09v1.0525"/></g><rect x=".26458" y="291.71" width="5.8208" height="4.5072" rx=".52917" ry=".52917" fill="none" stroke="#020802" stroke-linecap="square" stroke-width=".26458"/><g transform="translate(-.061984 .10586)" fill="none" stroke="#000" stroke-linecap="round" stroke-width=".26458px"><path d="m1.3849 291.09v1.0522"/><path d="m2.6196 291.09v1.0522"/><path d="m3.8543 291.09v1.0522"/><path d="m5.0891 291.09v1.0522"/></g><g transform="matrix(.77634 0 0 .77634 1.2846 65.88)" fill="none" stroke="#000" stroke-width=".39687"><path d="m2.3847 293.37-1.3867 1.1751 1.3867 1.1752"/><path d="m0.99794 294.55h3.1812"/></g></g></g></svg>
