<?xml version="1.0" encoding="UTF-8" standalone="no"?>
<!-- Created with Inkscape (http://www.inkscape.org/) -->

<svg
   xmlns:dc="http://purl.org/dc/elements/1.1/"
   xmlns:cc="http://creativecommons.org/ns#"
   xmlns:rdf="http://www.w3.org/1999/02/22-rdf-syntax-ns#"
   xmlns:svg="http://www.w3.org/2000/svg"
   xmlns="http://www.w3.org/2000/svg"
   xmlns:sodipodi="http://sodipodi.sourceforge.net/DTD/sodipodi-0.dtd"
   xmlns:inkscape="http://www.inkscape.org/namespaces/inkscape"
   width="80mm"
   height="80mm"
   viewBox="0 0 80 80"
   version="1.1"
   id="svg983"
   inkscape:version="0.92.4 (5da689c313, 2019-01-14)"
   sodipodi:docname="favicon-inkscape-svg.svg">
  <defs
     id="defs977" />
  <sodipodi:namedview
     id="base"
     pagecolor="#ffffff"
     bordercolor="#666666"
     borderopacity="1.0"
     inkscape:pageopacity="0.0"
     inkscape:pageshadow="2"
     inkscape:zoom="0.125"
     inkscape:cx="102.97258"
     inkscape:cy="154.94319"
     inkscape:document-units="mm"
     inkscape:current-layer="layer1"
     showgrid="false"
     fit-margin-top="0"
     fit-margin-left="0"
     fit-margin-right="0"
     fit-margin-bottom="0"
     inkscape:window-width="1920"
     inkscape:window-height="1017"
     inkscape:window-x="-8"
     inkscape:window-y="425"
     inkscape:window-maximized="1" />
  <metadata
     id="metadata980">
    <rdf:RDF>
      <cc:Work
         rdf:about="">
        <dc:format>image/svg+xml</dc:format>
        <dc:type
           rdf:resource="http://purl.org/dc/dcmitype/StillImage" />
        <dc:title></dc:title>
      </cc:Work>
    </rdf:RDF>
  </metadata>
  <g
     inkscape:label="Layer 1"
     inkscape:groupmode="layer"
     id="layer1"
     transform="translate(190.55777,-89.205063)">
    <rect
       style="fill:#2e6cb9;fill-opacity:1;stroke:none;stroke-width:0.79374999;stroke-linecap:round;stroke-miterlimit:4;stroke-dasharray:none;stroke-dashoffset:0;stroke-opacity:1"
       id="rect1599"
       width="80"
       height="80"
       x="-190.55777"
       y="89.205063"
       rx="0.52916664"
       ry="0.52916664" />
    <g
       id="g1608"
       transform="matrix(0.55146736,0,0,0.55146736,-14.187051,63.13361)">
      <path
         style="fill:#ffffff;stroke-width:0.56726062"
         d="m 289.81445,-16.037109 c 0.3191,0 0.6561,0.0131 0.97852,0.01563 0.32184,-0.0025 0.65804,-0.01563 0.97656,-0.01563 z m 0.97852,0.01563 c -22.74791,0.178014 -53.57084,6.5828604 -66.44141,11.9414059 -13.047,5.4400292 -21.74962,10.8754198 -24.46679,24.4726561 l -9.78516,75.353516 V 199.57812 h 16.85351 v 16.28711 c 0,19.85411 29.05469,19.85411 29.05469,0 v -16.28711 h 53.63477 0.17187 55.76563 v 16.28711 c 0,19.85411 29.05664,19.85411 29.05664,0 v -16.28711 h 16.85351 V 95.746094 L 381.70312,20.392578 C 378.98593,6.7953417 370.28526,1.3599511 357.23828,-4.0800781 344.36797,-9.4385059 313.54618,-15.8432 290.79297,-16.021484 Z M 249.36133,2.9882812 h 40.45117 42.41602 c 8.15153,0 8.15153,12.2363278 0,12.2363278 H 289.7168 249.36133 c -8.15719,0 -8.15719,-12.2363278 0,-12.2363278 z M 227.375,27.574219 h 62.3418 64.49804 c 8.61101,0 10.86268,4.378862 11.91211,11.021484 L 373.74023,93.25 c 0.71474,5.235807 -0.80648,10.43945 -8.03906,10.43945 H 289.8125 215.88867 c -7.23824,0 -8.754,-5.203643 -8.04492,-10.43945 l 7.61914,-54.654297 c 1.04943,-6.642622 3.29542,-11.021484 11.91211,-11.021484 z M 221.49219,139.1543 c 7.69772,0 13.9375,6.23977 13.9375,13.9375 0,7.69772 -6.23978,13.9375 -13.9375,13.9375 -7.69773,0 -13.9375,-6.23978 -13.9375,-13.9375 0,-7.69773 6.23977,-13.9375 13.9375,-13.9375 z m 138.60547,0 c 7.69772,0 13.9375,6.23977 13.9375,13.9375 0,7.69772 -6.23978,13.9375 -13.9375,13.9375 -7.69773,0 -13.9375,-6.23978 -13.9375,-13.9375 0,-7.69773 6.23977,-13.9375 13.9375,-13.9375 z"
         transform="matrix(0.46642287,0,0,0.46642287,-382.92042,69.735413)"
         id="path3396"
         inkscape:connector-curvature="0" />
      <g
         transform="matrix(0.26458333,0,0,0.26458333,-328.50886,34.939572)"
         id="g3402" />
      <g
         transform="matrix(0.26458333,0,0,0.26458333,-328.50886,34.939572)"
         id="g3408" />
    </g>
    <g
       id="g1639"
       transform="matrix(0.49123318,0,0,0.49123318,-162.44496,90.439952)">
      <path
         sodipodi:nodetypes="sccsccsccs"
         inkscape:connector-curvature="0"
         style="fill:#ffc21f;fill-opacity:1;stroke:#000000;stroke-width:5.5;stroke-linejoin:round;stroke-miterlimit:4;stroke-dasharray:none"
         id="path2"
         d="m 98.589904,85.452745 c -2.24014,3.880193 -7.12831,3.306779 -7.12831,3.306779 h -80.6475 c 0,0 -4.8881023,0.573377 -7.1283089,-3.306779 -2.2401183,-3.880004 0.4074336,-8.333221 0.4074336,-8.333221 l 40.3222503,-69.84 c 0,0 2.240134,-4.529451 6.720375,-4.529524 4.480324,-7.2e-5 6.720875,4.529524 6.720875,4.529524 l 40.325245,69.84 c 0,0 2.648036,4.453108 0.40794,8.333221 z" />
      <g
         style="stroke:#000000;stroke-linecap:round"
         id="g8"
         transform="matrix(1.123592,0,0,1.123592,-10.838237,-12.040393)">
        <path
           style="stroke-width:1.65709996"
           inkscape:connector-curvature="0"
           id="path4"
           d="m 59.832,76.141 c 0,2.6075 -2.1132,4.7199 -4.7228,4.7199 -2.6054,0 -4.7199,-2.1124 -4.7199,-4.7199 0,-2.6083 2.1145,-4.7207 4.7199,-4.7207 2.61,0 4.7228,2.1128 4.7228,4.7228 z" />
        <path
           style="stroke-width:1.57260001"
           inkscape:connector-curvature="0"
           id="path6"
           d="m 53.303,32.249 h 3.7248 c 1.8916,0 3.412,2.3017 3.412,5.1611 l -1.5917,23.657 c 0,2.8594 -1.5217,5.1623 -3.4116,5.1623 h -0.53898 c -1.8916,0 -3.4133,-2.3026 -3.4133,-5.1623 l -1.5933,-23.657 c -0.0041,-2.8627 1.5204,-5.1661 3.4095,-5.1661 z" />
      </g>
    </g>
  </g>
</svg>
