<?xml version="1.0" encoding="UTF-8"?>
<svg width="112.62" height="98.474" version="1.1" viewBox="0 0 112.62 98.474" xml:space="preserve" xmlns="http://www.w3.org/2000/svg"><g fill="#fff">

<path id="path3432_15_" d="m55.811 0.036982c-1.018 0.158-1.885 0.771-2.375 1.625l-53 91.812c-0.58 1.011-0.582 2.308 0 3.312 0.592 1.02 1.685 1.688 2.875 1.688h106c1.189 0 2.283-0.668 2.875-1.688 0.582-1.006 0.58-2.303 0-3.312l-53-91.812c-0.7-1.18-2.01-1.84-3.39-1.62zm0.5 10.56 45 79.251h-90.06l45.06-79.25z"/><path d="m59.832 80.141c0 2.6075-2.1132 4.7199-4.7228 4.7199-2.6054 0-4.7199-2.1124-4.7199-4.7199 0-2.6083 2.1145-4.7207 4.7199-4.7207 2.61 0 4.7228 2.1128 4.7228 4.7228z" stroke="#fff" stroke-linecap="round" stroke-width="1.6571"/><path d="m53.303 36.249h3.7248c1.8916 0 3.412 2.3017 3.412 5.1611l-1.5917 23.657c0 2.8594-1.5217 5.1623-3.4116 5.1623h-0.53898c-1.8916 0-3.4133-2.3026-3.4133-5.1623l-1.5933-23.657c-0.0041-2.8627 1.5204-5.1661 3.4095-5.1661z" stroke="#fff" stroke-linecap="round" stroke-width="1.5726"/>
</g></svg>
