<?xml version="1.0" encoding="UTF-8"?>
<svg width="112.62" height="98.474" version="1.1" viewBox="0 0 112.62 98.474" xml:space="preserve" xmlns="http://www.w3.org/2000/svg"><path d="m110.07 96.474h-107.53l53.763-93.12z" fill="#e7c800" stroke="#000" stroke-linejoin="round" stroke-width="2.5"/><g transform="matrix(1.2565 0 0 1.2565 -13.003 -13.845)" stroke="#000" stroke-linecap="round"><path d="m59.832 76.141c0 2.6075-2.1132 4.7199-4.7228 4.7199-2.6054 0-4.7199-2.1124-4.7199-4.7199 0-2.6083 2.1145-4.7207 4.7199-4.7207 2.61 0 4.7228 2.1128 4.7228 4.7228z" stroke-width="1.6571"/><path d="m53.303 32.249h3.7248c1.8916 0 3.412 2.3017 3.412 5.1611l-1.5917 23.657c0 2.8594-1.5217 5.1623-3.4116 5.1623h-0.53898c-1.8916 0-3.4133-2.3026-3.4133-5.1623l-1.5933-23.657c-0.0041-2.8627 1.5204-5.1661 3.4095-5.1661z" stroke-width="1.5726"/></g></svg>
