<?xml version="1.0" encoding="UTF-8" standalone="no"?>
<svg
   xmlns:dc="http://purl.org/dc/elements/1.1/"
   xmlns:cc="http://creativecommons.org/ns#"
   xmlns:rdf="http://www.w3.org/1999/02/22-rdf-syntax-ns#"
   xmlns:svg="http://www.w3.org/2000/svg"
   xmlns="http://www.w3.org/2000/svg"
   xmlns:sodipodi="http://sodipodi.sourceforge.net/DTD/sodipodi-0.dtd"
   xmlns:inkscape="http://www.inkscape.org/namespaces/inkscape"
   width="102.27557"
   height="91.534126"
   version="1.1"
   viewBox="0 0 102.27556 91.534127"
   xml:space="preserve"
   id="svg10"
   sodipodi:docname="hazard.svg"
   inkscape:version="0.92.4 (5da689c313, 2019-01-14)"><metadata
     id="metadata16"><rdf:RDF><cc:Work
         rdf:about=""><dc:format>image/svg+xml</dc:format><dc:type
           rdf:resource="http://purl.org/dc/dcmitype/StillImage" /><dc:title></dc:title></cc:Work></rdf:RDF></metadata><defs
     id="defs14" /><sodipodi:namedview
     pagecolor="#ffffff"
     bordercolor="#666666"
     borderopacity="1"
     objecttolerance="10"
     gridtolerance="10"
     guidetolerance="10"
     inkscape:pageopacity="0"
     inkscape:pageshadow="2"
     inkscape:window-width="920"
     inkscape:window-height="611"
     id="namedview12"
     showgrid="false"
     inkscape:zoom="3.3265001"
     inkscape:cx="52.088673"
     inkscape:cy="42.667266"
     inkscape:window-x="190"
     inkscape:window-y="553"
     inkscape:window-maximized="0"
     inkscape:current-layer="svg10"
     fit-margin-top="0"
     fit-margin-left="0"
     fit-margin-right="0"
     fit-margin-bottom="0" /><path
     d="m 98.589904,85.452745 c -2.24014,3.880193 -7.12831,3.306779 -7.12831,3.306779 h -80.6475 c 0,0 -4.8881023,0.573377 -7.1283089,-3.306779 -2.2401183,-3.880004 0.4074336,-8.333221 0.4074336,-8.333221 l 40.3222503,-69.84 c 0,0 2.240134,-4.529451 6.720375,-4.529524 4.480324,-7.2e-5 6.720875,4.529524 6.720875,4.529524 l 40.325245,69.84 c 0,0 2.648036,4.453108 0.40794,8.333221 z"
     id="path2"
     style="fill:#ffc21f;fill-opacity:1;stroke:#000000;stroke-width:5.5;stroke-linejoin:round;stroke-miterlimit:4;stroke-dasharray:none"
     inkscape:connector-curvature="0"
     sodipodi:nodetypes="sccsccsccs" /><g
     transform="matrix(1.123592,0,0,1.123592,-10.838237,-12.040393)"
     id="g8"
     style="stroke:#000000;stroke-linecap:round"><path
       d="m 59.832,76.141 c 0,2.6075 -2.1132,4.7199 -4.7228,4.7199 -2.6054,0 -4.7199,-2.1124 -4.7199,-4.7199 0,-2.6083 2.1145,-4.7207 4.7199,-4.7207 2.61,0 4.7228,2.1128 4.7228,4.7228 z"
       id="path4"
       inkscape:connector-curvature="0"
       style="stroke-width:1.65709996" /><path
       d="m 53.303,32.249 h 3.7248 c 1.8916,0 3.412,2.3017 3.412,5.1611 l -1.5917,23.657 c 0,2.8594 -1.5217,5.1623 -3.4116,5.1623 h -0.53898 c -1.8916,0 -3.4133,-2.3026 -3.4133,-5.1623 l -1.5933,-23.657 c -0.0041,-2.8627 1.5204,-5.1661 3.4095,-5.1661 z"
       id="path6"
       inkscape:connector-curvature="0"
       style="stroke-width:1.57260001" /></g></svg>