<?xml version="1.0" encoding="UTF-8" standalone="no"?>
<svg
   xmlns:dc="http://purl.org/dc/elements/1.1/"
   xmlns:cc="http://creativecommons.org/ns#"
   xmlns:rdf="http://www.w3.org/1999/02/22-rdf-syntax-ns#"
   xmlns:svg="http://www.w3.org/2000/svg"
   xmlns="http://www.w3.org/2000/svg"
   height="40"
   width="40"
   version="1.0"
   viewBox="0 0 40 40"
   id="svg2706">
  <defs
     id="defs911" />
  <g
     style="fill:#666666"
     transform="matrix(0.13839385,0,0,0.13839385,-32.916034,-47.763871)"
     id="layer1">
    <path
       style="fill:#666666"
       d="m 434.08,345.13 c -0.97,0 -6.14,7.04 -11.47,15.62 -14.36,23.1 -38.51,54.1 -43.69,56.09 -2.49,0.96 -7.43,2.01 -10.97,2.32 -6.51,0.57 -14.52,7.47 -32.31,27.81 -7.69,8.79 -12.88,12.1 -26.1,16.66 -10.16,3.49 -19.04,8.38 -23.09,12.71 -6.03,6.45 -6.31,7.48 -3.37,12.41 1.76,2.96 8.93,8.5 15.93,12.28 l 12.72,6.88 -3.19,11.28 c -1.76,6.21 -3.23,14.68 -3.25,18.81 -0.01,4.13 -2.4,12.33 -5.31,18.19 -5.61,11.3 -13.59,41.66 -14.75,56.12 17.07279,26.83327 146.30808,28.35253 167.38,7.85 -2.81,-1.86 0.03,-30.73 3.62,-36.88 4.77,-8.14 3.78,-22.99 -2.5,-37.4 -4.66,-10.7 -5.67,-16.68 -5.69,-34.29 -0.01,-13.62 1.15,-23.69 3.19,-27.9 1.76,-3.63 4.3,-13.01 5.66,-20.85 2.6,-15.02 11.05,-32.97 18.03,-38.25 7,-5.28 10.65,-19.47 7.25,-28.25 -4.01,-10.34 -8.31,-13.84 -12.47,-10.15 -2.41,2.14 -4.45,2.19 -7.91,0.22 -4.08,-2.34 -4.6,-2.02 -4.12,2.59 0.3,2.89 -0.81,5.8 -2.5,6.44 -2.39,0.9 -2.78,-1.05 -1.78,-8.72 0.71,-5.43 0.15,-13.45 -1.22,-17.84 -2.42,-7.78 -14.58,-23.75 -18.09,-23.75 z"
       id="path4352" />
  </g>
  <metadata
     id="metadata906">
    <rdf:RDF>
      <cc:Work>
        <dc:format>image/svg+xml</dc:format>
        <dc:type
           rdf:resource="http://purl.org/dc/dcmitype/StillImage" />
        <cc:license
           rdf:resource="http://creativecommons.org/publicdomain/zero/1.0/" />
        <dc:publisher>
          <cc:Agent
             rdf:about="http://openclipart.org/">
            <dc:title>Openclipart</dc:title>
          </cc:Agent>
        </dc:publisher>
        <dc:title></dc:title>
        <dc:date>2008-12-23T15:28:34</dc:date>
        <dc:description>The head of a wolf howling</dc:description>
        <dc:source>http://openclipart.org/detail/20806/wolf-head-howl-1-by-choochus</dc:source>
        <dc:creator>
          <cc:Agent>
            <dc:title>choochus</dc:title>
          </cc:Agent>
        </dc:creator>
        <dc:subject>
          <rdf:Bag>
            <rdf:li>animal</rdf:li>
            <rdf:li>clip art</rdf:li>
            <rdf:li>clipart</rdf:li>
            <rdf:li>howl</rdf:li>
            <rdf:li>image</rdf:li>
            <rdf:li>media</rdf:li>
            <rdf:li>png</rdf:li>
            <rdf:li>public domain</rdf:li>
            <rdf:li>silhouette</rdf:li>
            <rdf:li>svg</rdf:li>
            <rdf:li>wolf</rdf:li>
          </rdf:Bag>
        </dc:subject>
      </cc:Work>
      <cc:License
         rdf:about="http://creativecommons.org/publicdomain/zero/1.0/">
        <cc:permits
           rdf:resource="http://creativecommons.org/ns#Reproduction" />
        <cc:permits
           rdf:resource="http://creativecommons.org/ns#Distribution" />
        <cc:permits
           rdf:resource="http://creativecommons.org/ns#DerivativeWorks" />
      </cc:License>
    </rdf:RDF>
  </metadata>
</svg>
